<svg xmlns="http://www.w3.org/2000/svg" viewBox="0 0 800 220">
  <path d="M 194.3,0.0 L 195.0,2.3 L 196.0,6.7 L 199.3,13.3 L 201.7,18.3 L 202.2,20.0 L 203.1,26.7 L 203.3,33.3 L 203.1,40.0 L 203.5,46.7 L 208.4,48.3 L 215.1,48.8 L 221.8,47.6 L 224.3,46.7 L 228.6,45.6 L 235.3,44.4 L 242.0,44.5 L 248.7,45.7 L 253.8,46.7 L 255.5,47.1 L 262.2,48.0 L 268.9,48.3 L 275.6,48.5 L 282.4,49.1 L 289.1,50.9 L 293.8,53.3 L 295.8,55.1 L 302.5,59.7 L 304.5,60.0 L 309.2,60.6 L 311.4,60.0 L 316.0,58.5 L 322.7,55.1 L 325.7,53.3 L 329.2,46.7 L 329.4,42.7 L 329.6,40.0 L 332.4,33.3 L 336.1,31.3 L 342.9,31.8 L 348.7,33.3 L 349.6,33.6 L 356.3,34.5 L 363.0,34.0 L 365.3,33.3 L 369.7,31.8 L 376.5,28.3 L 378.5,26.7 L 383.2,23.1 L 386.1,20.0 L 389.9,15.7 L 391.8,13.3 L 395.2,6.7 L 396.4,0.0" fill="none" stroke="#c9a876" stroke-width="1" stroke-linejoin="round" stroke-linecap="round"/>
  <path d="M 181.5,37.9 L 178.0,40.0 L 176.2,46.7 L 176.3,53.3 L 177.0,60.0 L 180.6,66.7 L 181.5,67.5 L 188.2,70.1 L 195.0,68.1 L 196.8,66.7 L 198.4,60.0 L 200.2,53.3 L 200.0,46.7 L 195.0,44.8 L 188.2,40.9 L 186.0,40.0 L 181.5,37.9" fill="none" stroke="#c9a876" stroke-width="1" stroke-linejoin="round" stroke-linecap="round"/>
  <path d="M 430.3,39.6 L 427.3,40.0 L 423.5,41.3 L 417.1,46.7 L 416.8,47.0 L 411.3,53.3 L 410.1,54.5 L 406.2,60.0 L 406.2,66.7 L 406.8,73.3 L 407.0,80.0 L 405.3,86.7 L 403.5,93.3 L 403.4,94.3 L 402.8,100.0 L 402.3,106.7 L 401.6,113.3 L 398.5,120.0 L 396.6,123.0 L 394.2,126.7 L 390.2,133.3 L 389.9,134.4 L 388.0,140.0 L 389.4,146.7 L 389.9,147.3 L 393.9,153.3 L 396.6,156.3 L 398.9,160.0 L 402.2,166.7 L 403.4,169.3 L 405.4,173.3 L 410.1,177.9 L 414.8,180.0 L 416.8,180.7 L 423.5,181.6 L 430.3,182.0 L 437.0,183.6 L 441.3,186.7 L 443.7,188.3 L 450.4,192.4 L 452.0,193.3 L 457.1,195.2 L 463.9,197.3 L 470.6,198.8 L 477.3,199.8 L 478.1,200.0 L 484.0,200.8 L 490.8,201.7 L 497.5,202.1 L 504.2,201.3 L 507.6,200.0 L 510.9,198.0 L 515.5,193.3 L 517.6,188.6 L 518.4,186.7 L 519.8,180.0 L 522.0,173.3 L 524.4,169.3 L 526.2,166.7 L 530.9,160.0 L 531.1,159.5 L 535.5,153.3 L 537.8,151.0 L 544.5,149.4 L 551.3,149.8 L 558.0,150.5 L 564.7,151.6 L 569.2,153.3 L 571.4,154.3 L 578.2,158.3 L 580.8,160.0 L 584.9,164.3 L 587.4,166.7 L 590.8,173.3 L 591.6,176.2 L 592.6,180.0 L 593.2,186.7 L 593.3,193.3 L 593.6,200.0 L 594.9,206.7 L 596.3,213.3 L 597.2,220.0" fill="none" stroke="#c9a876" stroke-width="1" stroke-linejoin="round" stroke-linecap="round"/>
  <path d="M 430.3,39.6 L 437.0,38.8 L 443.7,38.8 L 446.6,40.0 L 450.4,44.3 L 451.0,46.7 L 452.6,53.3 L 455.4,60.0 L 457.1,63.0 L 458.7,66.7 L 461.9,73.3 L 463.9,77.5 L 465.1,80.0 L 469.1,86.7 L 470.6,88.5 L 477.3,91.8 L 484.0,92.0 L 490.8,91.0 L 497.5,89.9 L 504.2,89.8 L 510.9,90.6 L 517.6,91.1 L 524.4,91.6 L 531.1,92.5 L 535.6,93.3 L 537.8,93.7 L 544.5,95.1 L 551.3,96.3 L 558.0,97.5 L 564.7,98.7 L 571.4,99.9 L 571.8,100.0 L 578.2,101.4 L 584.9,102.7 L 591.6,103.5 L 598.3,104.3 L 605.0,104.9 L 611.8,105.2 L 618.5,105.3 L 624.0,106.7 L 625.2,107.0 L 631.9,110.6 L 636.8,113.3 L 638.7,114.5 L 645.4,117.1 L 652.1,116.2 L 656.5,113.3 L 658.8,111.8 L 665.0,106.7 L 665.5,106.3 L 672.3,103.9 L 679.0,103.5 L 685.7,104.5 L 692.4,105.5 L 699.2,103.0 L 701.3,100.0 L 705.0,93.3 L 705.9,91.5 L 707.4,86.7 L 709.1,80.0 L 709.9,73.3 L 710.5,66.7 L 711.3,60.0 L 712.6,55.1 L 713.1,53.3 L 715.7,46.7 L 719.3,41.5 L 721.4,40.0 L 726.1,37.5 L 732.8,36.0 L 739.5,37.4 L 742.6,40.0 L 746.2,44.4 L 747.4,46.7 L 750.0,53.3 L 752.9,60.0 L 752.9,60.1 L 757.7,66.7 L 759.7,69.2 L 762.4,73.3 L 765.6,80.0 L 766.4,84.2 L 766.8,86.7 L 767.1,93.3 L 767.1,100.0 L 767.2,106.7 L 767.9,113.3 L 769.0,120.0 L 770.9,126.7 L 773.1,132.6 L 773.4,133.3 L 774.8,140.0 L 773.1,143.4 L 771.3,146.7 L 766.4,151.6 L 764.9,153.3 L 759.7,158.7 L 758.4,160.0 L 752.9,165.9 L 752.4,166.7 L 748.3,173.3 L 746.2,176.5 L 743.1,180.0 L 739.5,182.8 L 732.8,184.9 L 726.1,185.9 L 722.1,186.7 L 719.3,187.2 L 712.6,188.7 L 705.9,190.5 L 699.2,192.7 L 697.7,193.3 L 692.4,196.1 L 685.7,199.1 L 682.7,200.0 L 679.0,201.1 L 672.3,202.0 L 665.5,202.5 L 658.8,203.1 L 652.1,203.8 L 645.4,204.9 L 640.5,206.7 L 638.7,207.5 L 631.9,213.1 L 631.8,213.3 L 627.8,220.0" fill="none" stroke="#c9a876" stroke-width="1" stroke-linejoin="round" stroke-linecap="round"/>
  <path d="M 295.8,92.0 L 292.6,93.3 L 289.1,94.8 L 283.0,100.0 L 282.4,100.7 L 279.6,106.7 L 278.5,113.3 L 279.5,120.0 L 282.4,125.2 L 283.3,126.7 L 289.1,132.6 L 289.9,133.3 L 295.8,137.3 L 302.3,140.0 L 302.5,140.1 L 309.2,140.6 L 316.0,141.4 L 322.7,142.9 L 329.4,143.6 L 335.4,140.0 L 336.1,137.5 L 336.6,133.3 L 336.1,132.5 L 332.5,126.7 L 329.4,122.4 L 327.6,120.0 L 323.6,113.3 L 322.7,110.6 L 320.9,106.7 L 317.1,100.0 L 316.0,98.3 L 310.9,93.3 L 309.2,91.9 L 302.5,91.2 L 295.8,92.0" fill="none" stroke="#c9a876" stroke-width="1" stroke-linejoin="round" stroke-linecap="round"/>
  <path d="M 0.0,93.5 L 6.7,93.9 L 13.4,96.0 L 17.4,100.0 L 20.2,105.9 L 20.4,106.7 L 22.3,113.3 L 23.2,120.0 L 24.2,126.7 L 26.7,133.3 L 26.9,133.6 L 32.3,140.0 L 33.6,140.8 L 40.3,143.3 L 47.1,145.1 L 52.4,146.7 L 53.8,147.1 L 60.5,149.3 L 67.2,152.0 L 69.7,153.3 L 73.9,156.9 L 76.6,160.0 L 80.0,166.7 L 80.7,169.1 L 81.8,173.3 L 81.3,180.0 L 80.7,182.0 L 79.3,186.7 L 76.9,193.3 L 75.6,200.0 L 76.1,206.7 L 77.0,213.3 L 76.2,220.0" fill="none" stroke="#c9a876" stroke-width="1" stroke-linejoin="round" stroke-linecap="round"/>
  <path d="M 107.6,106.2 L 106.8,106.7 L 103.0,113.3 L 103.1,120.0 L 106.2,126.7 L 107.6,128.4 L 114.3,132.1 L 121.0,132.4 L 127.1,126.7 L 127.5,120.0 L 125.8,113.3 L 121.8,106.7 L 121.0,106.1 L 114.3,104.2 L 107.6,106.2" fill="none" stroke="#c9a876" stroke-width="1" stroke-linejoin="round" stroke-linecap="round"/>
  <path d="M 188.2,191.8 L 187.8,193.3 L 188.2,195.2 L 189.8,193.3 L 188.2,191.8" fill="none" stroke="#c9a876" stroke-width="1" stroke-linejoin="round" stroke-linecap="round"/>
  <path d="M 0.0,209.4 L 6.7,210.9 L 11.5,213.3 L 13.4,214.4 L 20.2,218.3 L 24.6,220.0" fill="none" stroke="#c9a876" stroke-width="1" stroke-linejoin="round" stroke-linecap="round"/>
  <path d="M 123.2,0.0 L 127.7,4.2 L 132.3,6.7 L 134.5,7.1 L 141.2,7.9 L 147.9,8.0 L 154.6,7.0 L 156.5,6.7 L 161.3,0.0 L 165.2,6.7 L 165.6,13.3 L 165.3,20.0 L 164.6,26.7 L 164.0,33.3 L 164.2,40.0 L 165.0,46.7 L 165.8,53.3 L 166.6,60.0 L 168.1,63.6 L 169.3,66.7 L 174.8,73.0 L 175.2,73.3 L 181.5,77.2 L 188.1,80.0 L 188.2,80.0 L 195.0,80.5 L 200.6,80.0 L 201.7,79.8 L 204.1,80.0 L 208.4,80.2 L 215.1,81.0 L 221.8,80.2 L 222.2,80.0 L 224.1,73.3 L 223.3,66.7 L 223.3,60.0 L 228.6,53.6 L 228.9,53.3 L 235.3,51.2 L 242.0,50.8 L 248.7,52.3 L 252.9,53.3 L 255.5,54.7 L 262.2,55.7 L 268.9,55.5 L 275.6,55.4 L 282.4,56.8 L 287.1,60.0 L 289.1,62.2 L 293.4,66.7 L 295.8,71.7 L 297.8,73.3 L 295.8,74.9 L 289.9,80.0 L 289.1,80.3 L 282.4,84.8 L 279.9,86.7 L 275.6,90.8 L 271.6,93.3 L 270.9,100.0 L 270.9,106.7 L 270.9,113.3 L 271.4,120.0 L 274.2,126.7 L 275.6,128.2 L 280.2,133.3 L 282.4,135.2 L 287.9,140.0 L 289.1,141.1 L 295.8,145.8 L 298.0,146.7 L 302.5,148.5 L 309.2,149.1 L 316.0,150.4 L 322.7,152.9 L 324.2,153.3 L 329.4,155.0 L 336.1,155.6 L 342.9,153.7 L 343.6,153.3 L 346.2,146.7 L 346.8,140.0 L 345.3,133.3 L 342.9,130.1 L 340.7,126.7 L 336.1,120.3 L 335.9,120.0 L 332.0,113.3 L 330.2,106.7 L 329.4,105.0 L 326.8,100.0 L 322.9,93.3 L 322.7,93.0 L 318.3,86.7 L 316.0,83.1 L 312.1,80.0 L 311.4,73.3 L 316.0,70.1 L 319.8,66.7 L 322.7,65.2 L 329.4,61.9 L 333.7,60.0 L 336.1,58.5 L 341.8,53.3 L 342.9,51.5 L 345.6,46.7 L 349.6,43.2 L 356.3,40.8 L 359.6,40.0 L 363.0,39.4 L 369.7,37.7 L 376.5,35.8 L 381.7,33.3 L 383.2,32.3 L 388.4,26.7 L 389.9,25.0 L 394.1,20.0 L 396.6,16.3 L 398.6,13.3 L 400.9,6.7 L 401.6,0.0" fill="none" stroke="#c9a876" stroke-width="1" stroke-linejoin="round" stroke-linecap="round"/>
  <path d="M 450.4,26.4 L 449.1,26.7 L 443.7,28.4 L 437.0,29.6 L 430.3,30.1 L 423.5,29.6 L 416.8,28.4 L 410.1,30.0 L 405.4,33.3 L 403.4,36.0 L 399.9,40.0 L 396.6,44.4 L 395.3,46.7 L 393.6,53.3 L 393.6,60.0 L 393.9,66.7 L 394.2,73.3 L 394.0,80.0 L 393.4,86.7 L 393.6,93.3 L 394.3,100.0 L 394.7,106.7 L 394.2,113.3 L 391.2,120.0 L 389.9,122.0 L 386.7,126.7 L 383.2,131.6 L 381.6,133.3 L 377.8,140.0 L 376.5,144.3 L 375.1,146.7 L 369.7,151.5 L 365.8,153.3 L 363.0,154.8 L 356.3,159.3 L 355.4,160.0 L 355.3,166.7 L 356.3,167.3 L 363.0,172.1 L 366.8,173.3 L 369.7,173.8 L 372.0,173.3 L 376.5,170.5 L 379.6,166.7 L 383.2,160.9 L 389.9,162.0 L 393.4,166.7 L 396.6,173.3 L 396.6,173.3 L 399.4,180.0 L 403.4,183.3 L 410.1,185.5 L 416.8,186.5 L 418.2,186.7 L 423.5,187.5 L 430.3,189.3 L 437.0,193.3 L 437.1,193.3 L 443.7,197.6 L 449.9,200.0 L 450.4,200.2 L 457.1,201.6 L 463.9,202.3 L 470.6,202.7 L 477.3,203.2 L 484.0,204.2 L 490.8,205.4 L 497.5,206.1 L 504.2,205.9 L 510.9,203.8 L 517.3,200.0 L 517.6,199.6 L 522.5,193.3 L 524.4,187.3 L 524.6,186.7 L 526.1,180.0 L 528.8,173.3 L 531.1,170.2 L 534.0,166.7 L 537.8,162.4 L 540.3,160.0 L 544.5,156.7 L 551.3,155.0 L 558.0,155.0 L 564.7,156.3 L 571.4,159.4 L 572.4,160.0 L 578.2,165.5 L 579.3,166.7 L 582.7,173.3 L 584.5,180.0 L 584.9,185.9 L 584.9,186.7 L 584.9,193.3 L 584.9,193.7 L 584.8,200.0 L 584.9,200.8 L 585.5,206.7 L 586.4,213.3 L 586.9,220.0" fill="none" stroke="#c9a876" stroke-width="1" stroke-linejoin="round" stroke-linecap="round"/>
  <path d="M 450.4,26.4 L 457.1,25.6 L 463.9,25.6 L 467.7,26.7 L 464.8,33.3 L 463.9,34.6 L 461.2,40.0 L 459.5,46.7 L 459.5,53.3 L 461.1,60.0 L 463.5,66.7 L 463.9,67.6 L 466.3,73.3 L 469.6,80.0 L 470.6,81.6 L 477.3,86.7 L 477.4,86.7 L 484.0,87.1 L 486.9,86.7 L 490.8,86.0 L 497.5,84.7 L 504.2,84.4 L 510.9,85.0 L 517.6,85.4 L 524.4,85.8 L 531.1,86.5 L 532.1,86.7 L 537.8,87.7 L 544.5,89.6 L 551.3,91.4 L 558.0,93.1 L 559.0,93.3 L 564.7,94.5 L 571.4,95.7 L 578.2,96.8 L 584.9,98.0 L 591.6,98.9 L 598.3,99.9 L 599.5,100.0 L 605.0,100.7 L 611.8,101.0 L 618.5,101.1 L 625.2,102.5 L 631.9,105.1 L 635.8,106.7 L 638.7,108.2 L 645.4,110.4 L 652.1,108.9 L 655.3,106.7 L 658.8,104.8 L 665.5,101.0 L 668.5,100.0 L 672.3,98.8 L 679.0,98.2 L 685.7,97.9 L 692.4,96.8 L 697.2,93.3 L 699.2,91.4 L 701.7,86.7 L 704.4,80.0 L 705.8,73.3 L 705.9,72.5 L 706.5,66.7 L 707.5,60.0 L 709.2,53.3 L 710.8,46.7 L 712.6,40.9 L 713.1,40.0 L 719.3,34.3 L 721.8,33.3 L 726.1,31.9 L 732.8,30.2 L 739.5,30.9 L 743.6,33.3 L 746.2,35.3 L 749.5,40.0 L 752.3,46.7 L 752.9,48.6 L 754.6,53.3 L 757.7,60.0 L 759.7,62.7 L 762.2,66.7 L 766.4,73.2 L 766.5,73.3 L 769.4,80.0 L 770.5,86.7 L 770.9,93.3 L 770.9,100.0 L 771.1,106.7 L 771.9,113.3 L 773.1,118.2 L 773.7,120.0 L 776.8,126.7 L 779.8,131.6 L 780.9,133.3 L 782.5,140.0 L 780.2,146.7 L 779.8,147.1 L 773.8,153.3 L 773.1,154.0 L 767.0,160.0 L 766.4,160.7 L 761.2,166.7 L 759.7,169.3 L 756.9,173.3 L 753.3,180.0 L 752.9,180.6 L 748.4,186.7 L 746.2,188.2 L 739.5,190.8 L 732.8,191.7 L 726.1,192.6 L 720.2,193.3 L 719.3,193.5 L 712.6,194.6 L 705.9,196.6 L 699.2,199.4 L 697.9,200.0 L 692.4,202.9 L 685.7,205.2 L 679.0,206.4 L 676.8,206.7 L 672.3,207.2 L 665.5,207.8 L 658.8,208.4 L 652.1,209.4 L 645.4,211.3 L 641.7,213.3 L 638.7,215.7 L 635.2,220.0" fill="none" stroke="#c9a876" stroke-width="1" stroke-linejoin="round" stroke-linecap="round"/>
  <path d="M 255.5,71.5 L 252.3,73.3 L 248.7,75.9 L 244.7,80.0 L 246.7,86.7 L 248.7,87.5 L 255.5,90.5 L 262.2,90.9 L 267.6,86.7 L 265.8,80.0 L 262.2,74.8 L 259.7,73.3 L 255.5,71.5" fill="none" stroke="#c9a876" stroke-width="1" stroke-linejoin="round" stroke-linecap="round"/>
  <path d="M 13.4,86.6 L 13.2,86.7 L 6.7,87.1 L 0.0,87.3" fill="none" stroke="#c9a876" stroke-width="1" stroke-linejoin="round" stroke-linecap="round"/>
  <path d="M 13.4,86.6 L 13.6,86.7 L 20.2,88.2 L 23.5,93.3 L 25.4,100.0 L 26.5,106.7 L 26.9,108.3 L 28.0,113.3 L 29.1,120.0 L 30.6,126.7 L 33.6,132.4 L 34.4,133.3 L 40.3,137.4 L 47.1,139.9 L 47.4,140.0 L 53.8,141.9 L 60.5,144.3 L 67.2,146.2 L 68.9,146.7 L 73.9,148.6 L 80.7,152.9 L 81.1,153.3 L 84.7,160.0 L 86.7,166.7 L 87.4,171.8 L 87.6,173.3 L 87.4,175.0 L 86.9,180.0 L 85.0,186.7 L 82.9,193.3 L 81.9,200.0 L 83.0,206.7 L 84.7,213.3 L 84.9,220.0" fill="none" stroke="#c9a876" stroke-width="1" stroke-linejoin="round" stroke-linecap="round"/>
  <path d="M 114.3,99.5 L 111.2,100.0 L 107.6,100.8 L 100.8,104.8 L 99.3,106.7 L 97.0,113.3 L 96.9,120.0 L 98.0,126.7 L 100.2,133.3 L 100.8,135.3 L 105.0,140.0 L 107.6,140.9 L 114.3,141.7 L 121.0,141.8 L 127.7,140.9 L 130.2,140.0 L 134.5,135.6 L 135.5,133.3 L 135.0,126.7 L 134.5,125.0 L 133.2,120.0 L 131.3,113.3 L 128.4,106.7 L 127.7,105.8 L 121.0,100.8 L 117.5,100.0 L 114.3,99.5" fill="none" stroke="#c9a876" stroke-width="1" stroke-linejoin="round" stroke-linecap="round"/>
  <path d="M 168.1,172.4 L 167.8,173.3 L 168.1,174.1 L 171.4,180.0 L 174.8,184.6 L 176.0,186.7 L 177.8,193.3 L 178.9,200.0 L 180.4,206.7 L 181.5,211.9 L 182.0,213.3 L 183.7,220.0" fill="none" stroke="#c9a876" stroke-width="1" stroke-linejoin="round" stroke-linecap="round"/>
  <path d="M 168.1,172.4 L 174.8,168.6 L 181.5,171.8 L 183.6,173.3 L 188.2,176.4 L 193.6,180.0 L 195.0,181.1 L 198.9,186.7 L 200.8,193.3 L 200.1,200.0 L 199.4,206.7 L 198.8,213.3 L 198.0,220.0" fill="none" stroke="#c9a876" stroke-width="1" stroke-linejoin="round" stroke-linecap="round"/>
  <path d="M 109.2,0.0 L 110.8,6.7 L 114.3,11.6 L 119.8,13.3 L 121.0,13.5 L 123.0,13.3 L 127.7,12.9 L 134.5,12.9 L 138.7,13.3 L 141.2,13.6 L 147.9,15.1 L 154.6,19.3 L 155.2,20.0 L 157.3,26.7 L 157.2,33.3 L 156.3,40.0 L 154.7,46.7 L 154.6,46.9 L 153.0,53.3 L 154.6,57.6 L 155.3,60.0 L 159.5,66.7 L 161.3,68.9 L 164.7,73.3 L 168.1,76.3 L 173.4,80.0 L 174.8,80.7 L 181.5,83.8 L 188.2,85.8 L 195.0,86.6 L 197.1,86.7 L 201.7,86.8 L 208.4,88.4 L 215.1,92.4 L 216.5,93.3 L 221.1,100.0 L 221.8,102.2 L 225.9,106.7 L 228.6,110.3 L 231.3,106.7 L 235.3,102.5 L 237.6,100.0 L 242.0,97.7 L 248.7,97.1 L 255.5,99.7 L 256.1,100.0 L 262.2,106.0 L 262.5,106.7 L 263.5,113.3 L 263.1,120.0 L 263.3,126.7 L 267.8,133.3 L 268.9,134.0 L 275.6,138.3 L 277.6,140.0 L 282.4,144.8 L 284.3,146.7 L 289.1,151.7 L 291.4,153.3 L 295.8,155.7 L 302.5,157.4 L 309.2,157.9 L 316.0,159.4 L 317.6,160.0 L 322.7,161.9 L 329.4,165.1 L 332.6,166.7 L 336.1,168.2 L 342.9,171.4 L 346.0,173.3 L 349.6,174.7 L 356.3,177.3 L 363.0,179.6 L 364.8,180.0 L 369.7,181.1 L 376.5,182.6 L 383.1,186.7 L 383.2,186.7 L 388.7,193.3 L 389.9,194.2 L 396.6,195.3 L 403.4,194.6 L 410.1,193.5 L 412.5,193.3 L 416.8,193.1 L 418.8,193.3 L 423.5,194.0 L 430.3,196.8 L 435.2,200.0 L 437.0,201.2 L 443.7,206.0 L 445.6,206.7 L 450.4,208.1 L 457.1,207.5 L 463.9,206.7 L 464.4,206.7 L 470.6,206.3 L 477.3,206.6 L 477.7,206.7 L 484.0,207.5 L 490.8,208.8 L 497.5,209.9 L 504.2,210.1 L 510.9,208.8 L 516.2,206.7 L 517.6,205.9 L 524.4,201.3 L 526.1,200.0 L 530.3,193.3 L 531.1,190.1 L 531.9,186.7 L 533.2,180.0 L 536.4,173.3 L 537.8,171.7 L 541.9,166.7 L 544.5,164.1 L 551.3,160.3 L 553.3,160.0 L 558.0,159.6 L 560.0,160.0 L 564.7,161.4 L 571.4,166.2 L 571.9,166.7 L 575.9,173.3 L 578.0,180.0 L 578.2,181.5 L 578.6,186.7 L 578.6,193.3 L 578.2,196.8 L 577.7,200.0 L 574.9,206.7 L 571.4,209.7 L 564.7,212.1 L 561.5,213.3 L 558.0,215.1 L 553.2,220.0" fill="none" stroke="#c9a876" stroke-width="1" stroke-linejoin="round" stroke-linecap="round"/>
  <path d="M 407.3,0.0 L 407.3,6.7 L 407.8,13.3 L 410.1,17.3 L 414.5,20.0 L 416.8,20.6 L 423.5,23.0 L 430.3,24.0 L 437.0,23.9 L 443.7,22.8 L 450.4,20.8 L 452.7,20.0 L 457.1,18.5 L 463.9,15.2 L 466.7,13.3 L 470.6,8.6 L 472.6,6.7 L 475.1,0.0" fill="none" stroke="#c9a876" stroke-width="1" stroke-linejoin="round" stroke-linecap="round"/>
  <path d="M 490.8,4.6 L 490.2,6.7 L 487.7,13.3 L 486.2,20.0 L 484.4,26.7 L 484.0,27.5 L 479.8,33.3 L 477.3,35.7 L 471.3,40.0 L 470.6,40.7 L 466.7,46.7 L 465.5,53.3 L 466.7,60.0 L 468.5,66.7 L 470.6,72.4 L 471.1,73.3 L 476.7,80.0 L 477.3,80.5 L 484.0,81.5 L 490.8,80.5 L 493.5,80.0 L 497.5,79.1 L 504.2,78.8 L 510.9,79.2 L 517.6,79.2 L 524.4,79.2 L 531.1,79.7 L 532.3,80.0 L 537.8,81.0 L 544.5,83.4 L 551.3,86.2 L 552.3,86.7 L 558.0,88.5 L 564.7,90.2 L 571.4,91.3 L 578.2,92.4 L 584.1,93.3 L 584.9,93.5 L 591.6,94.7 L 598.3,95.9 L 605.0,96.8 L 611.8,97.2 L 618.5,97.2 L 625.2,98.2 L 631.1,100.0 L 631.9,100.3 L 638.7,102.7 L 645.4,104.1 L 652.1,102.6 L 657.1,100.0 L 658.8,99.2 L 665.5,96.3 L 672.3,94.3 L 678.6,93.3 L 679.0,93.3 L 685.7,91.8 L 692.4,88.6 L 694.4,86.7 L 699.0,80.0 L 699.2,79.7 L 700.9,73.3 L 702.1,66.7 L 703.3,60.0 L 705.2,53.3 L 705.9,48.2 L 706.1,46.7 L 706.4,40.0 L 707.8,33.3 L 712.6,28.9 L 719.3,26.9 L 720.2,26.7 L 726.1,25.2 L 732.8,23.4 L 739.5,24.0 L 744.7,26.7 L 746.2,27.5 L 752.1,33.3 L 752.9,34.7 L 755.5,40.0 L 757.6,46.7 L 759.5,53.3 L 759.7,53.7 L 762.3,60.0 L 766.4,66.7 L 766.4,66.7 L 770.3,73.3 L 773.1,80.0 L 773.1,80.1 L 774.4,86.7 L 774.8,93.3 L 774.9,100.0 L 775.2,106.7 L 776.0,113.3 L 778.4,120.0 L 779.8,122.5 L 782.6,126.7 L 786.6,133.0 L 786.8,133.3 L 788.2,140.0 L 786.6,146.5 L 786.5,146.7 L 781.4,153.3 L 779.8,155.0 L 774.8,160.0 L 773.1,162.3 L 769.7,166.7 L 766.9,173.3 L 766.4,175.3 L 764.8,180.0 L 761.7,186.7 L 759.7,188.7 L 754.6,193.3 L 752.9,194.1 L 746.2,196.5 L 739.5,198.1 L 732.8,199.0 L 726.1,199.8 L 725.0,200.0 L 719.3,200.9 L 712.6,202.6 L 705.9,205.6 L 703.8,206.7 L 699.2,209.0 L 692.4,210.6 L 685.7,211.1 L 679.0,211.4 L 672.3,212.0 L 665.5,212.8 L 660.8,213.3 L 658.8,213.6 L 652.1,214.9 L 645.4,217.7 L 642.6,220.0" fill="none" stroke="#c9a876" stroke-width="1" stroke-linejoin="round" stroke-linecap="round"/>
  <path d="M 363.0,45.1 L 358.8,46.7 L 356.3,48.0 L 351.0,53.3 L 349.6,55.3 L 346.1,60.0 L 342.9,63.1 L 336.5,66.7 L 336.1,66.9 L 329.4,70.7 L 326.2,73.3 L 324.1,80.0 L 327.2,86.7 L 329.4,90.3 L 331.4,93.3 L 335.4,100.0 L 336.1,101.7 L 338.2,106.7 L 339.5,113.3 L 342.9,119.5 L 343.2,120.0 L 348.6,126.7 L 349.6,127.9 L 355.9,133.3 L 356.3,134.0 L 363.0,137.1 L 369.7,133.4 L 369.8,133.3 L 376.5,128.7 L 378.4,126.7 L 383.2,120.8 L 383.7,120.0 L 386.7,113.3 L 387.2,106.7 L 386.8,100.0 L 386.2,93.3 L 386.0,86.7 L 386.6,80.0 L 386.6,73.3 L 386.3,66.7 L 385.7,60.0 L 384.5,53.3 L 383.2,49.4 L 381.4,46.7 L 376.5,44.0 L 369.7,43.8 L 363.0,45.1" fill="none" stroke="#c9a876" stroke-width="1" stroke-linejoin="round" stroke-linecap="round"/>
  <path d="M 0.0,48.5 L 6.7,51.2 L 8.5,53.3 L 11.3,60.0 L 12.9,66.7 L 13.4,68.2 L 17.0,73.3 L 20.2,75.1 L 26.9,78.9 L 28.5,80.0 L 32.2,86.7 L 32.9,93.3 L 32.8,100.0 L 33.1,106.7 L 33.6,110.1 L 34.1,113.3 L 35.3,120.0 L 37.8,126.7 L 40.3,129.6 L 46.1,133.3 L 47.1,133.8 L 53.8,136.4 L 60.5,139.0 L 65.0,140.0 L 67.2,140.5 L 73.9,141.0 L 80.7,140.2 L 81.2,140.0 L 87.4,136.0 L 89.2,133.3 L 90.7,126.7 L 90.8,120.0 L 91.3,113.3 L 92.7,106.7 L 94.1,102.8 L 96.0,100.0 L 100.8,97.4 L 107.6,96.2 L 114.3,95.5 L 121.0,96.2 L 127.7,99.1 L 129.0,100.0 L 134.2,106.7 L 134.5,107.3 L 136.9,113.3 L 139.4,120.0 L 141.2,124.6 L 142.0,126.7 L 143.8,133.3 L 143.3,140.0 L 141.2,142.5 L 134.5,146.2 L 132.8,146.7 L 127.7,147.6 L 121.0,148.2 L 114.3,148.8 L 107.6,149.8 L 100.8,151.9 L 98.5,153.3 L 94.1,159.5 L 93.9,160.0 L 93.3,166.7 L 93.5,173.3 L 93.5,180.0 L 92.7,186.7 L 91.0,193.3 L 90.0,200.0 L 91.4,206.7 L 92.6,213.3 L 92.7,220.0" fill="none" stroke="#c9a876" stroke-width="1" stroke-linejoin="round" stroke-linecap="round"/>
  <path d="M 168.1,159.7 L 167.5,160.0 L 161.3,165.5 L 160.8,166.7 L 159.9,173.3 L 161.3,179.7 L 161.4,180.0 L 166.2,186.7 L 168.1,189.9 L 169.6,193.3 L 170.7,200.0 L 172.5,206.7 L 174.5,213.3 L 174.8,214.4 L 175.9,220.0" fill="none" stroke="#c9a876" stroke-width="1" stroke-linejoin="round" stroke-linecap="round"/>
  <path d="M 168.1,159.7 L 172.8,160.0 L 174.8,160.1 L 181.5,163.3 L 186.2,166.7 L 188.2,168.3 L 194.3,173.3 L 195.0,173.8 L 201.7,179.7 L 201.9,180.0 L 204.6,186.7 L 205.5,193.3 L 205.0,200.0 L 204.5,206.7 L 204.0,213.3 L 203.6,220.0" fill="none" stroke="#c9a876" stroke-width="1" stroke-linejoin="round" stroke-linecap="round"/>
  <path d="M 101.1,0.0 L 101.5,6.7 L 103.0,13.3 L 106.7,20.0 L 107.6,20.9 L 114.3,25.0 L 121.0,22.6 L 125.6,20.0 L 127.7,19.2 L 134.5,18.0 L 141.2,18.7 L 144.6,20.0 L 147.9,22.4 L 150.7,26.7 L 150.8,33.3 L 148.4,40.0 L 147.9,40.9 L 143.5,46.7 L 141.2,51.0 L 140.2,53.3 L 141.2,56.6 L 142.5,60.0 L 147.9,66.6 L 147.9,66.7 L 153.9,73.3 L 154.6,74.2 L 159.8,80.0 L 161.3,81.5 L 168.1,85.1 L 172.2,86.7 L 174.8,87.5 L 181.5,89.3 L 188.2,90.4 L 195.0,90.8 L 201.7,91.6 L 205.7,93.3 L 208.4,94.8 L 213.5,100.0 L 215.1,103.2 L 216.9,106.7 L 219.1,113.3 L 221.8,117.9 L 225.2,120.0 L 228.6,121.7 L 235.3,122.8 L 242.0,121.3 L 243.2,120.0 L 244.1,113.3 L 247.9,106.7 L 248.7,106.2 L 249.6,106.7 L 253.7,113.3 L 251.3,120.0 L 248.7,125.8 L 247.8,126.7 L 248.7,133.3 L 248.7,133.3 L 255.3,140.0 L 255.5,140.1 L 262.2,142.2 L 268.9,144.9 L 271.5,146.7 L 275.6,150.6 L 277.7,153.3 L 282.4,158.1 L 284.9,160.0 L 289.1,162.0 L 295.8,164.1 L 302.5,165.1 L 309.2,165.5 L 313.8,166.7 L 316.0,167.2 L 322.7,170.0 L 329.4,173.3 L 329.5,173.3 L 336.1,175.9 L 342.9,178.7 L 346.1,180.0 L 349.6,181.4 L 356.3,183.6 L 363.0,185.5 L 366.9,186.7 L 369.7,188.1 L 376.0,193.3 L 376.5,194.3 L 380.4,200.0 L 383.2,201.9 L 389.9,203.5 L 396.6,203.4 L 403.4,202.3 L 410.1,201.1 L 416.8,200.4 L 423.5,200.9 L 430.3,203.6 L 434.6,206.7 L 437.0,208.6 L 442.7,213.3 L 443.7,214.2 L 450.4,215.6 L 456.6,213.3 L 457.1,213.2 L 463.9,210.8 L 470.6,209.7 L 477.3,209.7 L 484.0,210.7 L 490.8,212.1 L 496.4,213.3 L 497.5,213.6 L 504.2,214.4 L 510.9,213.7 L 512.1,213.3 L 517.6,211.6 L 524.4,208.6 L 528.7,206.7 L 531.1,205.1 L 537.6,200.0 L 537.8,199.3 L 539.0,193.3 L 539.5,186.7 L 540.6,180.0 L 543.8,173.3 L 544.5,172.4 L 551.2,166.7 L 551.3,166.6 L 558.0,165.4 L 561.6,166.7 L 564.7,168.3 L 568.8,173.3 L 571.4,178.8 L 571.9,180.0 L 572.7,186.7 L 572.7,193.3 L 571.4,198.5 L 570.9,200.0 L 564.7,205.7 L 562.7,206.7 L 558.0,208.6 L 551.3,211.4 L 548.6,213.3 L 545.9,220.0" fill="none" stroke="#c9a876" stroke-width="1" stroke-linejoin="round" stroke-linecap="round"/>
  <path d="M 413.9,0.0 L 414.9,6.7 L 416.8,10.2 L 419.3,13.3 L 423.5,16.1 L 430.3,18.7 L 437.0,19.1 L 443.7,18.4 L 450.4,16.3 L 456.6,13.3 L 457.1,13.0 L 463.7,6.7 L 463.9,6.2 L 466.0,0.0" fill="none" stroke="#c9a876" stroke-width="1" stroke-linejoin="round" stroke-linecap="round"/>
  <path d="M 499.8,0.0 L 498.4,6.7 L 497.5,8.7 L 495.1,13.3 L 492.2,20.0 L 490.8,24.2 L 489.8,26.7 L 487.1,33.3 L 484.0,38.1 L 482.1,40.0 L 477.3,44.4 L 474.9,46.7 L 472.0,53.3 L 473.0,60.0 L 474.9,66.7 L 477.3,71.2 L 480.7,73.3 L 484.0,74.5 L 490.8,74.0 L 494.7,73.3 L 497.5,72.8 L 504.2,72.5 L 510.9,72.6 L 517.6,71.7 L 524.4,70.3 L 531.1,69.8 L 537.8,71.8 L 540.3,73.3 L 544.5,75.3 L 551.3,79.5 L 552.0,80.0 L 558.0,82.9 L 564.7,85.5 L 569.7,86.7 L 571.4,87.0 L 578.2,88.0 L 584.9,89.2 L 591.6,90.6 L 598.3,92.1 L 605.0,93.1 L 609.9,93.3 L 611.8,93.4 L 618.5,93.4 L 625.2,94.3 L 631.9,96.0 L 638.7,97.8 L 645.4,98.5 L 652.1,97.0 L 658.8,94.3 L 661.2,93.3 L 665.5,91.6 L 672.3,89.6 L 679.0,88.0 L 683.0,86.7 L 685.7,85.3 L 691.9,80.0 L 692.4,79.3 L 695.3,73.3 L 697.3,66.7 L 698.9,60.0 L 699.2,59.1 L 700.7,53.3 L 701.1,46.7 L 700.2,40.0 L 699.3,33.3 L 701.2,26.7 L 705.9,23.2 L 712.6,20.7 L 715.3,20.0 L 719.3,18.8 L 726.1,16.3 L 732.8,14.4 L 739.5,15.6 L 746.2,19.8 L 746.4,20.0 L 752.9,25.3 L 754.3,26.7 L 759.2,33.3 L 759.7,34.5 L 761.6,40.0 L 762.8,46.7 L 764.1,53.3 L 766.4,59.2 L 766.7,60.0 L 770.4,66.7 L 773.1,71.5 L 774.2,73.3 L 777.1,80.0 L 778.4,86.7 L 778.9,93.3 L 779.1,100.0 L 779.4,106.7 L 779.8,110.1 L 780.4,113.3 L 783.6,120.0 L 786.6,124.3 L 788.1,126.7 L 791.5,133.3 L 792.9,140.0 L 791.6,146.7 L 787.8,153.3 L 786.6,154.9 L 781.9,160.0 L 779.8,163.2 L 777.4,166.7 L 775.7,173.3 L 775.4,180.0 L 774.8,186.7 L 773.1,190.1 L 770.7,193.3 L 766.4,195.6 L 759.7,198.4 L 756.0,200.0 L 752.9,201.0 L 746.2,202.8 L 739.5,204.4 L 732.8,205.6 L 726.1,206.6 L 725.7,206.7 L 719.3,208.2 L 712.6,211.5 L 709.7,213.3 L 705.9,215.4 L 699.2,217.3 L 692.4,217.2 L 685.7,216.6 L 679.0,216.2 L 672.3,216.7 L 665.5,217.6 L 658.8,218.6 L 653.6,220.0" fill="none" stroke="#c9a876" stroke-width="1" stroke-linejoin="round" stroke-linecap="round"/>
  <path d="M 0.0,43.3 L 6.7,44.5 L 9.9,46.7 L 13.4,51.5 L 14.3,53.3 L 17.0,60.0 L 20.2,65.5 L 21.4,66.7 L 26.9,70.6 L 33.6,73.2 L 35.2,73.3 L 40.3,74.4 L 45.7,73.3 L 47.1,72.6 L 49.6,66.7 L 52.4,60.0 L 53.8,58.3 L 57.4,60.0 L 60.5,66.4 L 60.6,66.7 L 60.5,66.9 L 55.1,73.3 L 53.8,74.3 L 48.6,80.0 L 47.4,86.7 L 47.1,87.0 L 43.5,93.3 L 40.7,100.0 L 40.3,101.8 L 39.6,106.7 L 40.2,113.3 L 40.3,114.0 L 41.9,120.0 L 46.5,126.7 L 47.1,127.1 L 53.8,130.7 L 60.0,133.3 L 60.5,133.5 L 67.2,134.5 L 73.9,133.8 L 75.1,133.3 L 80.7,129.1 L 82.3,126.7 L 83.8,120.0 L 84.5,113.3 L 85.1,106.7 L 83.7,100.0 L 80.7,94.8 L 79.7,93.3 L 74.4,86.7 L 73.9,80.5 L 73.9,80.0 L 73.9,80.0 L 80.7,79.0 L 87.4,79.7 L 88.0,80.0 L 94.1,86.3 L 94.4,86.7 L 100.8,90.4 L 107.6,91.4 L 114.3,91.2 L 121.0,91.6 L 127.7,93.3 L 128.0,93.3 L 134.5,96.7 L 138.5,100.0 L 141.2,105.0 L 142.2,106.7 L 144.3,113.3 L 146.8,120.0 L 147.9,123.1 L 149.1,126.7 L 150.8,133.3 L 151.9,140.0 L 151.4,146.7 L 147.9,149.7 L 141.2,151.2 L 134.5,152.3 L 127.7,152.9 L 123.7,153.3 L 121.0,153.6 L 114.3,154.8 L 107.6,157.1 L 103.5,160.0 L 100.8,164.3 L 99.9,166.7 L 99.8,173.3 L 100.8,178.8 L 101.2,180.0 L 104.9,186.7 L 107.6,190.8 L 108.9,193.3 L 107.7,200.0 L 107.6,200.3 L 102.9,206.7 L 100.8,212.2 L 100.6,213.3 L 99.6,220.0" fill="none" stroke="#c9a876" stroke-width="1" stroke-linejoin="round" stroke-linecap="round"/>
  <path d="M 363.0,52.4 L 361.5,53.3 L 356.3,58.9 L 355.6,60.0 L 350.3,66.7 L 349.6,67.4 L 342.9,72.2 L 340.7,73.3 L 336.1,77.6 L 334.5,80.0 L 336.1,84.8 L 336.9,86.7 L 341.4,93.3 L 342.9,96.1 L 344.8,100.0 L 346.6,106.7 L 347.5,113.3 L 349.6,117.1 L 351.7,120.0 L 356.3,124.1 L 363.0,126.5 L 369.7,124.4 L 375.1,120.0 L 376.5,118.1 L 379.0,113.3 L 379.5,106.7 L 379.2,100.0 L 378.9,93.3 L 379.0,86.7 L 379.5,80.0 L 379.5,73.3 L 378.8,66.7 L 377.7,60.0 L 376.5,56.6 L 373.8,53.3 L 369.7,51.4 L 363.0,52.4" fill="none" stroke="#c9a876" stroke-width="1" stroke-linejoin="round" stroke-linecap="round"/>
  <path d="M 161.3,153.0 L 159.9,153.3 L 155.2,160.0 L 154.6,163.2 L 154.2,166.7 L 153.7,173.3 L 154.0,180.0 L 154.6,184.4 L 155.2,186.7 L 156.4,193.3 L 156.2,200.0 L 154.6,204.8 L 153.4,206.7 L 147.9,209.2 L 141.2,213.3 L 141.1,213.3 L 137.0,220.0" fill="none" stroke="#c9a876" stroke-width="1" stroke-linejoin="round" stroke-linecap="round"/>
  <path d="M 161.3,153.0 L 168.1,152.6 L 171.3,153.3 L 174.8,154.0 L 181.5,156.8 L 187.3,160.0 L 188.2,160.7 L 195.0,166.1 L 195.8,166.7 L 201.7,171.0 L 203.9,173.3 L 208.0,180.0 L 208.4,181.5 L 209.3,186.7 L 209.7,193.3 L 209.3,200.0 L 208.7,206.7 L 208.4,209.8 L 208.1,213.3 L 207.6,220.0" fill="none" stroke="#c9a876" stroke-width="1" stroke-linejoin="round" stroke-linecap="round"/>
  <path d="M 94.6,0.0 L 94.4,6.7 L 94.1,10.2 L 93.8,13.3 L 93.0,20.0 L 93.1,26.7 L 94.1,27.8 L 100.8,33.0 L 101.4,33.3 L 107.6,35.8 L 114.3,37.4 L 121.0,34.7 L 122.2,33.3 L 127.7,27.0 L 128.1,26.7 L 134.5,24.3 L 141.2,25.4 L 142.7,26.7 L 143.4,33.3 L 141.2,37.3 L 138.7,40.0 L 134.5,45.0 L 133.2,46.7 L 131.7,53.3 L 134.0,60.0 L 134.5,60.8 L 138.0,66.7 L 141.2,71.6 L 142.6,73.3 L 145.8,80.0 L 141.2,86.5 L 140.7,86.7 L 134.5,87.3 L 127.7,87.1 L 121.0,86.7 L 117.2,86.7 L 114.3,86.6 L 107.6,86.1 L 100.8,81.6 L 99.3,80.0 L 94.1,75.7 L 88.9,73.3 L 87.4,72.9 L 80.7,71.7 L 73.9,68.8 L 71.8,66.7 L 68.1,60.0 L 67.2,57.4 L 65.5,53.3 L 61.0,46.7 L 60.5,46.3 L 53.8,45.7 L 51.7,46.7 L 47.1,50.2 L 45.0,53.3 L 40.8,60.0 L 40.3,60.6 L 33.6,64.7 L 26.9,63.3 L 23.5,60.0 L 20.2,54.7 L 19.6,53.3 L 17.8,46.7 L 13.4,40.1 L 13.2,40.0 L 6.7,38.6 L 0.0,38.3" fill="none" stroke="#c9a876" stroke-width="1" stroke-linejoin="round" stroke-linecap="round"/>
  <path d="M 421.8,0.0 L 423.5,6.1 L 423.7,6.7 L 430.3,13.1 L 431.0,13.3 L 437.0,14.7 L 443.7,14.4 L 446.8,13.3 L 450.4,11.8 L 457.1,6.8 L 457.2,6.7 L 459.9,0.0" fill="none" stroke="#c9a876" stroke-width="1" stroke-linejoin="round" stroke-linecap="round"/>
  <path d="M 505.4,0.0 L 504.3,6.7 L 504.2,6.9 L 501.0,13.3 L 497.5,19.7 L 497.3,20.0 L 494.7,26.7 L 492.8,33.3 L 490.8,39.4 L 490.4,40.0 L 486.2,46.7 L 484.0,49.8 L 481.7,53.3 L 483.0,60.0 L 484.0,61.6 L 490.8,64.1 L 497.5,63.8 L 504.2,64.1 L 510.9,63.6 L 517.6,60.5 L 518.6,60.0 L 524.4,56.8 L 531.1,55.9 L 537.8,58.1 L 541.3,60.0 L 544.5,62.6 L 548.3,66.7 L 551.3,69.2 L 555.1,73.3 L 558.0,75.4 L 564.7,79.8 L 565.2,80.0 L 571.4,81.9 L 578.2,83.4 L 584.9,84.9 L 591.6,86.7 L 591.7,86.7 L 598.3,88.3 L 605.0,89.5 L 611.8,89.9 L 618.5,89.7 L 625.2,90.4 L 631.9,91.8 L 638.7,93.2 L 643.6,93.3 L 645.4,93.4 L 645.7,93.3 L 652.1,91.8 L 658.8,89.3 L 665.5,86.7 L 665.6,86.7 L 672.3,84.1 L 679.0,81.6 L 681.9,80.0 L 685.7,77.0 L 688.6,73.3 L 691.8,66.7 L 692.4,64.8 L 693.8,60.0 L 695.7,53.3 L 695.9,46.7 L 694.8,40.0 L 693.6,33.3 L 694.0,26.7 L 698.5,20.0 L 699.2,19.4 L 705.9,16.3 L 712.6,13.5 L 713.0,13.3 L 719.3,8.3 L 721.2,6.7 L 723.5,0.0" fill="none" stroke="#c9a876" stroke-width="1" stroke-linejoin="round" stroke-linecap="round"/>
  <path d="M 740.8,0.0 L 743.0,6.7 L 746.2,9.9 L 748.9,13.3 L 752.9,16.9 L 756.1,20.0 L 759.7,23.6 L 762.9,26.7 L 766.4,32.4 L 766.9,33.3 L 767.8,40.0 L 768.0,46.7 L 768.7,53.3 L 771.0,60.0 L 773.1,64.0 L 774.6,66.7 L 778.4,73.3 L 779.8,76.8 L 781.6,80.0 L 783.3,86.7 L 783.9,93.3 L 784.2,100.0 L 784.5,106.7 L 785.7,113.3 L 786.6,115.1 L 789.0,120.0 L 793.0,126.7 L 793.3,127.2 L 796.3,133.3 L 797.5,140.0 L 796.7,146.7 L 793.8,153.3 L 793.3,154.1 L 788.9,160.0 L 786.6,163.7 L 784.7,166.7 L 783.7,173.3 L 784.3,180.0 L 784.8,186.7 L 783.6,193.3 L 779.8,198.5 L 777.7,200.0 L 773.1,202.2 L 766.4,203.5 L 759.7,204.6 L 752.9,206.4 L 751.9,206.7 L 746.2,208.2 L 739.5,210.2 L 732.8,211.9 L 726.1,213.0 L 725.0,213.3 L 719.3,215.3 L 712.6,219.1 L 711.1,220.0" fill="none" stroke="#c9a876" stroke-width="1" stroke-linejoin="round" stroke-linecap="round"/>
  <path d="M 363.0,74.3 L 358.3,80.0 L 358.9,86.7 L 359.7,93.3 L 359.7,100.0 L 359.4,106.7 L 360.1,113.3 L 363.0,115.1 L 366.8,113.3 L 368.2,106.7 L 367.6,100.0 L 366.9,93.3 L 367.4,86.7 L 369.7,80.8 L 369.8,80.0 L 369.7,79.3 L 363.0,74.3" fill="none" stroke="#c9a876" stroke-width="1" stroke-linejoin="round" stroke-linecap="round"/>
  <path d="M 53.8,96.5 L 50.3,100.0 L 47.1,106.1 L 46.9,106.7 L 46.9,113.3 L 47.1,113.9 L 49.8,120.0 L 53.8,123.9 L 58.4,126.7 L 60.5,127.6 L 67.2,127.8 L 70.2,126.7 L 73.9,123.0 L 75.4,120.0 L 76.4,113.3 L 76.0,106.7 L 73.9,102.6 L 72.1,100.0 L 67.2,95.7 L 60.5,93.7 L 53.8,96.5" fill="none" stroke="#c9a876" stroke-width="1" stroke-linejoin="round" stroke-linecap="round"/>
  <path d="M 168.1,97.8 L 164.3,100.0 L 161.3,103.7 L 159.5,106.7 L 156.1,113.3 L 155.5,120.0 L 156.2,126.7 L 157.7,133.3 L 160.2,140.0 L 161.3,141.6 L 168.1,145.7 L 170.2,146.7 L 174.8,148.2 L 181.5,151.0 L 186.7,153.3 L 188.2,154.1 L 195.0,157.6 L 201.1,160.0 L 201.7,160.4 L 208.4,164.6 L 210.2,166.7 L 212.9,173.3 L 213.7,180.0 L 213.7,186.7 L 213.7,193.3 L 213.2,200.0 L 212.5,206.7 L 211.8,213.3 L 211.3,220.0" fill="none" stroke="#c9a876" stroke-width="1" stroke-linejoin="round" stroke-linecap="round"/>
  <path d="M 168.1,97.8 L 174.8,95.3 L 181.5,94.7 L 188.2,94.7 L 195.0,94.8 L 201.7,96.2 L 207.5,100.0 L 208.4,101.0 L 212.0,106.7 L 214.1,113.3 L 215.1,116.1 L 217.4,120.0 L 221.8,125.2 L 224.8,126.7 L 228.6,128.8 L 235.3,133.1 L 235.5,133.3 L 240.8,140.0 L 242.0,141.2 L 248.7,145.7 L 250.8,146.7 L 255.5,148.3 L 262.2,151.0 L 265.7,153.3 L 268.9,156.0 L 272.5,160.0 L 275.6,163.3 L 280.5,166.7 L 282.4,167.9 L 289.1,170.6 L 295.8,172.0 L 302.5,172.6 L 309.2,173.0 L 310.6,173.3 L 316.0,175.0 L 322.7,177.4 L 329.4,179.7 L 330.2,180.0 L 336.1,182.4 L 342.9,185.2 L 346.7,186.7 L 349.6,188.4 L 356.3,191.6 L 360.7,193.3 L 363.0,198.0 L 363.9,200.0 L 363.0,202.6 L 361.7,206.7 L 359.3,213.3 L 359.4,220.0" fill="none" stroke="#c9a876" stroke-width="1" stroke-linejoin="round" stroke-linecap="round"/>
  <path d="M 121.0,159.0 L 117.1,160.0 L 114.3,161.0 L 107.6,166.4 L 107.3,166.7 L 106.7,173.3 L 107.6,175.5 L 109.8,180.0 L 114.3,185.4 L 115.5,186.7 L 119.8,193.3 L 119.9,200.0 L 116.4,206.7 L 114.3,208.4 L 110.5,213.3 L 107.6,219.5 L 107.4,220.0" fill="none" stroke="#c9a876" stroke-width="1" stroke-linejoin="round" stroke-linecap="round"/>
  <path d="M 121.0,159.0 L 127.7,158.4 L 134.5,158.3 L 141.2,158.7 L 143.8,160.0 L 147.8,166.7 L 147.6,173.3 L 146.4,180.0 L 144.2,186.7 L 141.7,193.3 L 141.2,194.6 L 138.8,200.0 L 134.5,205.3 L 132.7,206.7 L 128.5,213.3 L 127.7,216.0 L 126.5,220.0" fill="none" stroke="#c9a876" stroke-width="1" stroke-linejoin="round" stroke-linecap="round"/>
  <path d="M 551.3,176.2 L 548.5,180.0 L 546.9,186.7 L 546.7,193.3 L 548.4,200.0 L 551.3,202.2 L 558.0,202.0 L 562.0,200.0 L 564.7,196.4 L 565.9,193.3 L 565.9,186.7 L 564.7,180.6 L 564.5,180.0 L 558.0,173.9 L 551.3,176.2" fill="none" stroke="#c9a876" stroke-width="1" stroke-linejoin="round" stroke-linecap="round"/>
  <path d="M 416.8,206.0 L 411.9,206.7 L 410.1,206.9 L 403.4,208.3 L 396.6,209.6 L 389.9,210.5 L 383.2,212.0 L 380.3,213.3 L 376.5,217.4 L 374.5,220.0" fill="none" stroke="#c9a876" stroke-width="1" stroke-linejoin="round" stroke-linecap="round"/>
  <path d="M 416.8,206.0 L 423.5,206.4 L 424.0,206.7 L 430.3,209.6 L 434.7,213.3 L 437.0,215.6 L 442.0,220.0" fill="none" stroke="#c9a876" stroke-width="1" stroke-linejoin="round" stroke-linecap="round"/>
  <path d="M 470.6,213.0 L 469.2,213.3 L 463.9,215.0 L 457.1,218.7 L 454.4,220.0" fill="none" stroke="#c9a876" stroke-width="1" stroke-linejoin="round" stroke-linecap="round"/>
  <path d="M 470.6,213.0 L 477.3,212.8 L 480.9,213.3 L 484.0,213.9 L 490.8,215.7 L 497.5,217.7 L 504.2,219.1 L 510.9,219.1 L 517.6,217.9 L 524.4,215.9 L 531.1,214.3 L 537.8,218.5 L 538.3,220.0" fill="none" stroke="#c9a876" stroke-width="1" stroke-linejoin="round" stroke-linecap="round"/>
  <path d="M 87.4,3.3 L 86.9,6.7 L 84.3,13.3 L 80.7,19.2 L 80.1,20.0 L 75.0,26.7 L 73.9,29.6 L 70.8,33.3 L 73.9,37.1 L 80.7,36.8 L 87.4,38.2 L 92.1,40.0 L 94.1,40.7 L 100.8,44.4 L 104.6,46.7 L 107.6,49.8 L 114.3,51.3 L 118.3,53.3 L 121.0,55.5 L 123.3,60.0 L 127.7,66.3 L 127.9,66.7 L 129.6,73.3 L 127.7,76.2 L 121.0,78.2 L 114.3,78.1 L 107.6,75.8 L 104.7,73.3 L 100.8,70.5 L 94.1,68.4 L 87.4,67.4 L 84.2,66.7 L 80.7,65.7 L 74.3,60.0 L 73.9,59.1 L 72.1,53.3 L 71.6,46.7 L 72.4,40.0 L 67.2,35.3 L 60.5,36.1 L 53.8,36.7 L 47.1,37.1 L 40.3,36.9 L 38.1,33.3 L 33.6,28.6 L 32.2,26.7 L 26.9,23.7 L 20.2,23.7 L 14.8,26.7 L 13.4,27.6 L 6.7,31.5 L 0.0,32.8" fill="none" stroke="#c9a876" stroke-width="1" stroke-linejoin="round" stroke-linecap="round"/>
  <path d="M 428.8,0.0 L 430.3,4.0 L 431.7,6.7 L 437.0,9.6 L 443.7,9.9 L 450.4,6.8 L 450.7,6.7 L 454.0,0.0" fill="none" stroke="#c9a876" stroke-width="1" stroke-linejoin="round" stroke-linecap="round"/>
  <path d="M 509.7,0.0 L 508.8,6.7 L 506.4,13.3 L 504.2,17.6 L 502.9,20.0 L 500.0,26.7 L 498.6,33.3 L 498.9,40.0 L 502.9,46.7 L 504.2,47.8 L 510.9,49.4 L 517.6,48.5 L 524.4,47.8 L 531.1,48.3 L 537.8,50.3 L 544.5,52.6 L 546.3,53.3 L 551.3,56.8 L 554.9,60.0 L 558.0,64.2 L 559.6,66.7 L 564.7,72.0 L 566.2,73.3 L 571.4,76.2 L 578.2,78.7 L 582.5,80.0 L 584.9,80.6 L 591.6,82.7 L 598.3,84.6 L 605.0,85.9 L 611.8,86.3 L 618.5,86.1 L 625.2,86.6 L 625.6,86.7 L 631.9,87.7 L 638.7,88.7 L 645.4,88.5 L 652.1,86.7 L 652.2,86.7 L 658.8,83.8 L 665.5,80.5 L 666.7,80.0 L 672.3,77.3 L 679.0,73.9 L 679.7,73.3 L 685.4,66.7 L 685.7,66.1 L 688.2,60.0 L 690.4,53.3 L 690.6,46.7 L 689.6,40.0 L 688.5,33.3 L 688.4,26.7 L 690.6,20.0 L 692.4,17.6 L 698.3,13.3 L 699.2,12.8 L 705.9,9.5 L 710.1,6.7 L 712.6,1.6 L 713.2,0.0" fill="none" stroke="#c9a876" stroke-width="1" stroke-linejoin="round" stroke-linecap="round"/>
  <path d="M 751.6,0.0 L 752.9,4.4 L 753.7,6.7 L 759.1,13.3 L 759.7,13.9 L 766.1,20.0 L 766.4,20.3 L 773.1,26.6 L 773.2,26.7 L 775.5,33.3 L 774.3,40.0 L 773.1,46.7 L 773.3,53.3 L 775.5,60.0 L 779.0,66.7 L 779.8,68.2 L 783.4,73.3 L 786.6,79.3 L 787.0,80.0 L 789.0,86.7 L 789.6,93.3 L 789.8,100.0 L 790.1,106.7 L 791.3,113.3 L 793.3,117.6 L 794.5,120.0 L 798.3,126.7 L 800.0,130.6" fill="none" stroke="#c9a876" stroke-width="1" stroke-linejoin="round" stroke-linecap="round"/>
  <path d="M 33.6,42.3 L 27.2,46.7 L 27.0,53.3 L 33.6,54.3 L 34.6,53.3 L 36.1,46.7 L 33.6,42.3" fill="none" stroke="#c9a876" stroke-width="1" stroke-linejoin="round" stroke-linecap="round"/>
  <path d="M 188.2,98.8 L 181.6,100.0 L 181.5,100.0 L 174.8,104.4 L 172.6,106.7 L 168.3,113.3 L 168.1,113.7 L 164.7,120.0 L 163.8,126.7 L 165.5,133.3 L 168.1,136.8 L 171.4,140.0 L 174.8,141.8 L 181.5,145.3 L 184.9,146.7 L 188.2,148.0 L 195.0,150.1 L 201.7,151.0 L 208.4,151.2 L 215.1,151.6 L 219.4,153.3 L 221.8,155.9 L 223.1,160.0 L 222.7,166.7 L 221.8,169.8 L 221.0,173.3 L 219.5,180.0 L 218.4,186.7 L 218.0,193.3 L 217.5,200.0 L 216.5,206.7 L 215.5,213.3 L 215.1,217.1 L 214.9,220.0" fill="none" stroke="#c9a876" stroke-width="1" stroke-linejoin="round" stroke-linecap="round"/>
  <path d="M 188.2,98.8 L 195.0,98.7 L 199.8,100.0 L 201.7,100.7 L 207.4,106.7 L 208.4,108.9 L 210.0,113.3 L 212.3,120.0 L 215.1,125.8 L 215.8,126.7 L 221.8,132.9 L 222.8,133.3 L 228.6,138.6 L 229.8,140.0 L 234.0,146.7 L 235.3,147.6 L 242.0,151.0 L 248.7,153.1 L 249.5,153.3 L 255.5,155.2 L 262.2,158.9 L 263.4,160.0 L 268.9,165.9 L 269.7,166.7 L 275.0,173.3 L 275.6,174.8 L 279.8,180.0 L 280.7,186.7 L 279.7,193.3 L 282.4,199.3 L 283.2,200.0 L 289.1,202.0 L 295.8,200.9 L 297.1,200.0 L 298.3,193.3 L 300.8,186.7 L 302.5,186.0 L 309.2,185.9 L 316.0,186.4 L 322.7,186.5 L 324.1,186.7 L 329.4,187.7 L 336.1,191.2 L 339.2,193.3 L 342.1,200.0 L 342.9,201.4 L 345.0,206.7 L 346.6,213.3 L 347.9,220.0" fill="none" stroke="#c9a876" stroke-width="1" stroke-linejoin="round" stroke-linecap="round"/>
  <path d="M 60.5,105.5 L 58.9,106.7 L 57.2,113.3 L 60.5,117.3 L 66.2,113.3 L 62.9,106.7 L 60.5,105.5" fill="none" stroke="#c9a876" stroke-width="1" stroke-linejoin="round" stroke-linecap="round"/>
  <path d="M 800.0,153.4 L 796.6,160.0 L 793.3,165.8 L 792.8,166.7 L 791.9,173.3 L 792.1,180.0 L 792.1,186.7 L 791.3,193.3 L 789.0,200.0 L 786.6,205.3 L 785.2,206.7 L 779.8,210.9 L 773.1,211.0 L 766.4,210.2 L 759.7,210.2 L 752.9,211.5 L 746.5,213.3 L 746.2,213.4 L 739.5,215.9 L 732.8,218.3 L 726.1,219.4 L 724.4,220.0" fill="none" stroke="#c9a876" stroke-width="1" stroke-linejoin="round" stroke-linecap="round"/>
  <path d="M 121.0,166.1 L 119.8,166.7 L 116.1,173.3 L 120.3,180.0 L 121.0,180.7 L 127.7,183.8 L 134.5,182.0 L 135.9,180.0 L 138.4,173.3 L 135.4,166.7 L 134.5,166.3 L 127.7,165.3 L 121.0,166.1" fill="none" stroke="#c9a876" stroke-width="1" stroke-linejoin="round" stroke-linecap="round"/>
  <path d="M 410.1,212.3 L 405.7,213.3 L 403.4,214.0 L 396.6,216.0 L 389.9,218.0 L 386.9,220.0" fill="none" stroke="#c9a876" stroke-width="1" stroke-linejoin="round" stroke-linecap="round"/>
  <path d="M 410.1,212.3 L 416.8,211.3 L 423.5,211.6 L 426.7,213.3 L 430.3,215.6 L 434.7,220.0" fill="none" stroke="#c9a876" stroke-width="1" stroke-linejoin="round" stroke-linecap="round"/>
  <path d="M 463.9,219.4 L 470.6,216.7 L 477.3,216.2 L 484.0,217.4 L 490.8,219.4 L 492.6,220.0" fill="none" stroke="#c9a876" stroke-width="1" stroke-linejoin="round" stroke-linecap="round"/>
  <path d="M 78.9,0.0 L 77.5,6.7 L 73.9,12.7 L 73.5,13.3 L 67.2,19.4 L 66.3,20.0 L 60.5,23.9 L 53.8,25.5 L 47.1,24.1 L 40.3,20.9 L 38.8,20.0 L 33.6,17.3 L 26.9,14.0 L 20.2,13.6 L 13.4,16.3 L 7.2,20.0 L 6.7,20.3 L 0.0,22.6" fill="none" stroke="#c9a876" stroke-width="1" stroke-linejoin="round" stroke-linecap="round"/>
  <path d="M 436.7,0.0 L 437.0,0.4 L 443.7,3.1 L 446.5,0.0" fill="none" stroke="#c9a876" stroke-width="1" stroke-linejoin="round" stroke-linecap="round"/>
  <path d="M 513.4,0.0 L 512.9,6.7 L 511.6,13.3 L 510.9,15.7 L 509.2,20.0 L 506.7,26.7 L 506.8,33.3 L 510.9,38.0 L 516.1,40.0 L 517.6,40.3 L 524.4,41.4 L 531.1,42.9 L 537.8,45.0 L 542.5,46.7 L 544.5,47.5 L 551.3,50.3 L 557.6,53.3 L 558.0,53.6 L 564.0,60.0 L 564.7,61.0 L 568.4,66.7 L 571.4,69.5 L 577.2,73.3 L 578.2,73.8 L 584.9,76.4 L 591.6,78.7 L 595.6,80.0 L 598.3,80.8 L 605.0,82.2 L 611.8,82.7 L 618.5,82.4 L 625.2,82.7 L 631.9,83.6 L 638.7,84.2 L 645.4,83.5 L 652.1,81.2 L 654.7,80.0 L 658.8,77.5 L 665.5,73.3 L 665.5,73.3 L 672.3,69.4 L 676.3,66.7 L 679.0,64.2 L 681.6,60.0 L 684.4,53.3 L 685.0,46.7 L 684.2,40.0 L 683.2,33.3 L 682.8,26.7 L 683.8,20.0 L 685.7,15.4 L 687.0,13.3 L 692.4,8.1 L 695.5,6.7 L 699.2,3.6 L 702.4,0.0" fill="none" stroke="#c9a876" stroke-width="1" stroke-linejoin="round" stroke-linecap="round"/>
  <path d="M 762.1,0.0 L 764.1,6.7 L 766.4,9.5 L 769.6,13.3 L 773.1,16.3 L 777.9,20.0 L 779.8,21.9 L 783.8,26.7 L 784.2,33.3 L 781.4,40.0 L 779.8,43.5 L 778.8,46.7 L 778.3,53.3 L 779.8,58.7 L 780.3,60.0 L 784.5,66.7 L 786.6,69.7 L 789.9,73.3 L 793.3,79.3 L 793.7,80.0 L 795.7,86.7 L 796.2,93.3 L 796.2,100.0 L 796.3,106.7 L 797.4,113.3 L 800.0,119.1" fill="none" stroke="#c9a876" stroke-width="1" stroke-linejoin="round" stroke-linecap="round"/>
  <path d="M 80.7,49.4 L 79.2,53.3 L 80.7,57.0 L 84.7,60.0 L 87.4,60.7 L 91.3,60.0 L 94.1,56.5 L 95.0,53.3 L 94.1,52.3 L 87.4,47.6 L 80.7,49.4" fill="none" stroke="#c9a876" stroke-width="1" stroke-linejoin="round" stroke-linecap="round"/>
  <path d="M 181.5,106.2 L 181.0,106.7 L 175.7,113.3 L 174.8,115.5 L 172.6,120.0 L 172.0,126.7 L 174.7,133.3 L 174.8,133.4 L 181.5,138.8 L 184.2,140.0 L 188.2,141.5 L 195.0,142.7 L 201.7,141.8 L 206.3,140.0 L 208.4,138.0 L 210.6,133.3 L 209.4,126.7 L 208.4,123.2 L 207.7,120.0 L 205.7,113.3 L 202.4,106.7 L 201.7,105.9 L 195.0,103.0 L 188.2,103.5 L 181.5,106.2" fill="none" stroke="#c9a876" stroke-width="1" stroke-linejoin="round" stroke-linecap="round"/>
  <path d="M 242.0,159.6 L 240.5,160.0 L 235.3,162.3 L 232.1,166.7 L 228.7,173.3 L 228.6,173.5 L 226.1,180.0 L 224.0,186.7 L 223.0,193.3 L 222.2,200.0 L 221.8,201.4 L 221.0,206.7 L 219.9,213.3 L 219.3,220.0" fill="none" stroke="#c9a876" stroke-width="1" stroke-linejoin="round" stroke-linecap="round"/>
  <path d="M 242.0,159.6 L 248.7,160.0 L 248.8,160.0 L 255.5,162.3 L 261.0,166.7 L 262.2,168.7 L 264.7,173.3 L 264.9,180.0 L 262.2,185.1 L 260.7,186.7 L 255.5,192.4 L 254.3,193.3 L 255.5,194.4 L 260.9,200.0 L 262.2,200.5 L 268.9,204.7 L 271.3,206.7 L 275.6,210.3 L 279.2,213.3 L 282.4,218.6 L 283.3,220.0" fill="none" stroke="#c9a876" stroke-width="1" stroke-linejoin="round" stroke-linecap="round"/>
  <path d="M 800.0,176.7 L 799.4,180.0 L 798.4,186.7 L 797.5,193.3 L 796.3,200.0 L 795.6,206.7 L 794.3,213.3 L 793.3,215.4 L 789.2,220.0" fill="none" stroke="#c9a876" stroke-width="1" stroke-linejoin="round" stroke-linecap="round"/>
  <path d="M 410.1,218.3 L 416.8,216.9 L 423.5,217.1 L 427.9,220.0" fill="none" stroke="#c9a876" stroke-width="1" stroke-linejoin="round" stroke-linecap="round"/>
  <path d="M 746.2,219.1 L 752.9,216.9 L 759.7,215.9 L 766.4,217.1 L 773.1,220.0 L 773.1,220.0" fill="none" stroke="#c9a876" stroke-width="1" stroke-linejoin="round" stroke-linecap="round"/>
  <path d="M 13.2,0.0 L 8.0,6.7 L 6.7,7.4 L 0.0,9.5" fill="none" stroke="#c9a876" stroke-width="1" stroke-linejoin="round" stroke-linecap="round"/>
  <path d="M 28.7,0.0 L 33.4,6.7 L 33.6,6.8 L 40.3,10.6 L 46.5,13.3 L 47.1,13.6 L 53.8,14.4 L 57.8,13.3 L 60.5,12.4 L 66.9,6.7 L 67.2,5.8 L 69.0,0.0" fill="none" stroke="#c9a876" stroke-width="1" stroke-linejoin="round" stroke-linecap="round"/>
  <path d="M 517.0,0.0 L 516.8,6.7 L 516.3,13.3 L 515.7,20.0 L 515.8,26.7 L 517.6,29.8 L 520.9,33.3 L 524.4,34.9 L 531.1,37.6 L 536.5,40.0 L 537.8,40.5 L 544.5,43.2 L 551.3,45.7 L 553.9,46.7 L 558.0,48.6 L 564.7,52.2 L 566.1,53.3 L 570.9,60.0 L 571.4,60.8 L 576.1,66.7 L 578.2,68.2 L 584.9,72.0 L 587.8,73.3 L 591.6,74.8 L 598.3,76.9 L 605.0,78.4 L 611.8,78.9 L 618.5,78.5 L 625.2,78.7 L 631.9,79.3 L 638.7,79.6 L 645.4,78.2 L 652.1,74.8 L 654.5,73.3 L 658.8,69.9 L 663.1,66.7 L 665.5,64.4 L 671.4,60.0 L 672.3,59.1 L 676.3,53.3 L 678.1,46.7 L 677.9,40.0 L 677.0,33.3 L 676.1,26.7 L 676.0,20.0 L 676.5,13.3 L 677.4,6.7 L 678.1,0.0" fill="none" stroke="#c9a876" stroke-width="1" stroke-linejoin="round" stroke-linecap="round"/>
  <path d="M 636.3,0.0 L 636.7,6.7 L 638.7,12.8 L 639.3,13.3 L 645.4,16.9 L 649.7,13.3 L 652.1,8.1 L 652.4,6.7 L 652.9,0.0" fill="none" stroke="#c9a876" stroke-width="1" stroke-linejoin="round" stroke-linecap="round"/>
  <path d="M 771.6,0.0 L 773.1,4.3 L 774.1,6.7 L 779.8,12.3 L 781.1,13.3 L 786.6,17.5 L 788.8,20.0 L 791.5,26.7 L 791.7,33.3 L 789.6,40.0 L 786.6,44.5 L 785.5,46.7 L 784.2,53.3 L 786.4,60.0 L 786.6,60.3 L 793.3,65.8 L 796.2,66.7 L 800.0,70.3" fill="none" stroke="#c9a876" stroke-width="1" stroke-linejoin="round" stroke-linecap="round"/>
  <path d="M 188.2,109.4 L 183.2,113.3 L 181.5,116.1 L 179.9,120.0 L 180.1,126.7 L 181.5,129.0 L 187.1,133.3 L 188.2,133.9 L 195.0,134.3 L 197.1,133.3 L 201.7,128.9 L 202.5,126.7 L 202.6,120.0 L 201.7,115.9 L 200.6,113.3 L 195.0,108.3 L 188.2,109.4" fill="none" stroke="#c9a876" stroke-width="1" stroke-linejoin="round" stroke-linecap="round"/>
  <path d="M 242.0,172.8 L 241.5,173.3 L 241.8,180.0 L 242.0,180.1 L 242.1,180.0 L 248.7,173.5 L 248.9,173.3 L 248.7,173.2 L 242.0,172.8" fill="none" stroke="#c9a876" stroke-width="1" stroke-linejoin="round" stroke-linecap="round"/>
  <path d="M 235.3,197.4 L 234.0,200.0 L 228.6,205.3 L 228.2,206.7 L 226.3,213.3 L 225.1,220.0" fill="none" stroke="#c9a876" stroke-width="1" stroke-linejoin="round" stroke-linecap="round"/>
  <path d="M 235.3,197.4 L 236.5,200.0 L 242.0,202.8 L 248.1,206.7 L 248.7,206.9 L 255.5,208.6 L 262.2,211.8 L 264.3,213.3 L 268.9,219.7 L 269.1,220.0" fill="none" stroke="#c9a876" stroke-width="1" stroke-linejoin="round" stroke-linecap="round"/>
  <path d="M 520.4,0.0 L 520.5,6.7 L 520.9,13.3 L 522.1,20.0 L 524.4,25.0 L 525.3,26.7 L 531.1,31.8 L 532.9,33.3 L 537.8,35.9 L 544.5,39.1 L 546.6,40.0 L 551.3,41.8 L 558.0,44.3 L 564.2,46.7 L 564.7,46.9 L 571.4,51.9 L 572.8,53.3 L 577.1,60.0 L 578.2,61.2 L 583.9,66.7 L 584.9,67.3 L 591.6,70.5 L 598.3,73.0 L 599.7,73.3 L 605.0,74.5 L 611.8,74.9 L 618.5,74.3 L 625.2,74.2 L 631.9,74.4 L 638.7,74.1 L 641.4,73.3 L 645.4,71.7 L 652.1,66.8 L 652.3,66.7 L 658.6,60.0 L 658.8,59.7 L 663.6,53.3 L 665.5,46.7 L 664.2,40.0 L 658.8,36.7 L 652.1,35.7 L 645.4,34.0 L 643.8,33.3 L 638.7,30.5 L 631.9,27.5 L 629.6,26.7 L 625.2,23.6 L 619.2,20.0 L 619.8,13.3 L 622.8,6.7 L 624.2,0.0" fill="none" stroke="#c9a876" stroke-width="1" stroke-linejoin="round" stroke-linecap="round"/>
  <path d="M 782.6,0.0 L 786.4,6.7 L 786.6,6.8 L 793.3,6.7 L 793.3,6.7 L 794.4,0.0" fill="none" stroke="#c9a876" stroke-width="1" stroke-linejoin="round" stroke-linecap="round"/>
  <path d="M 800.0,14.6 L 797.9,20.0 L 797.9,26.7 L 798.8,33.3 L 800.0,37.7" fill="none" stroke="#c9a876" stroke-width="1" stroke-linejoin="round" stroke-linecap="round"/>
  <path d="M 523.9,0.0 L 524.2,6.7 L 524.4,7.6 L 525.6,13.3 L 528.4,20.0 L 531.1,23.9 L 533.3,26.7 L 537.8,30.6 L 541.4,33.3 L 544.5,34.9 L 551.3,37.9 L 557.0,40.0 L 558.0,40.3 L 564.7,42.5 L 571.4,45.7 L 572.9,46.7 L 578.2,52.0 L 579.3,53.3 L 583.8,60.0 L 584.9,61.0 L 591.6,65.7 L 593.4,66.7 L 598.3,68.5 L 605.0,70.0 L 611.8,70.2 L 618.5,69.4 L 625.2,68.9 L 631.9,68.5 L 638.7,67.2 L 639.8,66.7 L 645.4,62.5 L 647.8,60.0 L 652.0,53.3 L 650.3,46.7 L 645.4,43.1 L 640.2,40.0 L 638.7,39.2 L 631.9,36.6 L 625.2,34.2 L 622.4,33.3 L 618.5,32.1 L 611.8,29.6 L 608.4,26.7 L 605.0,22.5 L 603.4,20.0 L 598.4,13.3 L 598.3,13.2 L 592.7,6.7 L 591.6,4.3 L 590.5,0.0" fill="none" stroke="#c9a876" stroke-width="1" stroke-linejoin="round" stroke-linecap="round"/>
  <path d="M 527.7,0.0 L 528.4,6.7 L 530.4,13.3 L 531.1,14.6 L 534.5,20.0 L 537.8,24.0 L 540.3,26.7 L 544.5,30.0 L 549.9,33.3 L 551.3,33.9 L 558.0,36.3 L 564.7,38.1 L 570.6,40.0 L 571.4,40.3 L 578.2,43.8 L 581.6,46.7 L 584.9,50.9 L 586.9,53.3 L 591.6,59.1 L 592.6,60.0 L 598.3,62.8 L 605.0,64.6 L 611.8,64.5 L 618.5,63.0 L 625.2,61.7 L 631.9,60.2 L 632.4,60.0 L 638.7,54.9 L 639.8,53.3 L 638.7,51.2 L 634.7,46.7 L 631.9,45.4 L 625.2,43.0 L 618.5,40.6 L 617.2,40.0 L 611.8,38.1 L 605.3,33.3 L 605.0,33.1 L 600.0,26.7 L 598.3,24.3 L 595.1,20.0 L 591.6,16.1 L 589.2,13.3 L 585.2,6.7 L 584.9,5.3 L 584.1,0.0" fill="none" stroke="#c9a876" stroke-width="1" stroke-linejoin="round" stroke-linecap="round"/>
  <path d="M 531.8,0.0 L 532.8,6.7 L 535.7,13.3 L 537.8,16.5 L 540.6,20.0 L 544.5,24.2 L 547.6,26.7 L 551.3,29.0 L 558.0,31.9 L 563.6,33.3 L 564.7,33.6 L 571.4,34.4 L 578.2,35.3 L 584.9,37.3 L 588.7,40.0 L 591.6,43.0 L 595.8,46.7 L 598.3,50.0 L 601.5,53.3 L 605.0,54.7 L 611.1,53.3 L 606.1,46.7 L 605.0,46.1 L 598.3,40.6 L 597.8,40.0 L 593.8,33.3 L 591.6,28.3 L 590.6,26.7 L 585.2,20.0 L 584.9,19.6 L 581.9,13.3 L 580.1,6.7 L 579.5,0.0" fill="none" stroke="#c9a876" stroke-width="1" stroke-linejoin="round" stroke-linecap="round"/>
</svg>
