<svg xmlns="http://www.w3.org/2000/svg" viewBox="0 0 800 220" preserveAspectRatio="none">
  <path d="M 89.8,0.0 L 88.5,9.6 L 84.1,19.1 L 81.0,23.2 L 70.9,28.0 L 66.7,28.7 L 60.8,30.7 L 50.6,31.9 L 40.5,31.3 L 30.4,38.2 L 30.4,38.3 L 22.6,47.8 L 20.3,49.9 L 13.1,57.4 L 10.1,60.5 L 0.0,65.5" fill="none" stroke="#c9a876" stroke-width="1.1" stroke-linejoin="round" stroke-linecap="round"/>
  <path d="M 658.2,92.8 L 652.3,95.7 L 648.1,97.6 L 638.0,104.8 L 637.5,105.2 L 631.6,114.8 L 628.7,124.3 L 627.8,125.6 L 623.6,133.9 L 617.7,139.0 L 612.5,143.5 L 607.6,148.4 L 604.3,153.0 L 602.2,162.6 L 600.4,172.2 L 598.8,181.7 L 597.9,191.3 L 597.5,200.9 L 597.5,201.4 L 596.7,210.4 L 592.7,220.0" fill="none" stroke="#c9a876" stroke-width="1.1" stroke-linejoin="round" stroke-linecap="round"/>
  <path d="M 658.2,92.8 L 668.4,91.9 L 678.5,92.3 L 688.6,92.8 L 698.7,94.8 L 701.0,95.7 L 707.5,105.2 L 698.7,112.5 L 695.0,114.8 L 688.6,117.1 L 678.5,120.3 L 669.2,124.3 L 668.4,125.2 L 661.7,133.9 L 668.4,140.8 L 670.5,143.5 L 678.5,147.0 L 688.6,150.9 L 695.7,153.0 L 698.7,153.8 L 708.9,155.6 L 719.0,156.6 L 729.1,158.9 L 734.4,162.6 L 739.2,169.5 L 740.5,172.2 L 742.4,181.7 L 743.6,191.3 L 744.9,200.9 L 746.7,210.4 L 748.8,220.0" fill="none" stroke="#c9a876" stroke-width="1.1" stroke-linejoin="round" stroke-linecap="round"/>
  <path d="M 374.7,150.2 L 364.9,153.0 L 364.6,153.2 L 354.4,158.5 L 344.3,160.9 L 339.5,162.6 L 334.2,164.0 L 324.1,168.1 L 313.9,169.4 L 303.8,168.7 L 293.7,169.5 L 288.8,172.2 L 283.5,178.6 L 282.3,181.7 L 278.2,191.3 L 273.4,198.1 L 270.4,200.9 L 266.4,210.4 L 268.8,220.0" fill="none" stroke="#c9a876" stroke-width="1.1" stroke-linejoin="round" stroke-linecap="round"/>
  <path d="M 374.7,150.2 L 384.8,152.0 L 387.0,153.0 L 394.9,158.0 L 400.3,162.6 L 400.6,172.2 L 394.9,180.3 L 393.1,181.7 L 384.8,187.4 L 379.5,191.3 L 374.7,195.9 L 371.9,200.9 L 366.9,210.4 L 364.6,212.6 L 359.4,220.0" fill="none" stroke="#c9a876" stroke-width="1.1" stroke-linejoin="round" stroke-linecap="round"/>
  <path d="M 98.5,0.0 L 98.3,9.6 L 97.7,19.1 L 96.4,28.7 L 95.0,38.3 L 93.8,47.8 L 91.1,56.6 L 90.8,57.4 L 82.3,67.0 L 81.0,67.7 L 70.9,71.3 L 60.8,67.4 L 60.3,67.0 L 50.6,60.2 L 40.8,57.4 L 40.5,57.3 L 40.3,57.4 L 30.4,60.6 L 23.7,67.0 L 20.3,71.0 L 13.8,76.5 L 10.1,78.1 L 0.0,79.4" fill="none" stroke="#c9a876" stroke-width="1.1" stroke-linejoin="round" stroke-linecap="round"/>
  <path d="M 648.1,71.3 L 638.9,76.5 L 638.0,77.2 L 628.3,86.1 L 627.8,86.6 L 618.4,95.7 L 617.7,96.1 L 607.9,105.2 L 607.6,105.6 L 600.7,114.8 L 597.5,117.6 L 587.3,122.3 L 581.5,124.3 L 577.2,126.2 L 567.1,131.3 L 562.6,133.9 L 557.7,143.5 L 567.1,151.6 L 570.1,153.0 L 577.2,155.2 L 585.3,162.6 L 585.7,172.2 L 582.2,181.7 L 579.3,191.3 L 577.3,200.9 L 577.2,201.2 L 568.3,210.4 L 567.1,211.0 L 557.0,219.4 L 556.8,220.0" fill="none" stroke="#c9a876" stroke-width="1.1" stroke-linejoin="round" stroke-linecap="round"/>
  <path d="M 648.1,71.3 L 658.2,70.4 L 668.2,76.5 L 668.4,76.6 L 678.5,81.0 L 688.6,82.0 L 698.7,82.8 L 708.9,85.4 L 710.8,86.1 L 719.0,90.0 L 728.9,95.7 L 729.1,96.0 L 732.8,105.2 L 730.9,114.8 L 729.1,117.9 L 719.1,124.3 L 719.0,124.4 L 708.9,127.9 L 698.7,131.4 L 693.7,133.9 L 698.7,138.5 L 708.3,143.5 L 708.9,143.6 L 719.0,144.0 L 729.1,145.7 L 739.2,151.2 L 741.4,153.0 L 749.4,161.6 L 750.3,162.6 L 754.2,172.2 L 754.6,181.7 L 754.6,191.3 L 755.4,200.9 L 757.6,210.4 L 759.5,216.3 L 761.4,220.0" fill="none" stroke="#c9a876" stroke-width="1.1" stroke-linejoin="round" stroke-linecap="round"/>
  <path d="M 303.8,94.0 L 300.3,95.7 L 295.4,105.2 L 303.8,113.6 L 304.9,114.8 L 313.9,123.0 L 315.3,124.3 L 320.2,133.9 L 318.9,143.5 L 313.9,151.1 L 311.6,153.0 L 303.8,155.5 L 293.7,157.4 L 283.5,160.2 L 280.8,162.6 L 275.5,172.2 L 273.4,176.7 L 271.1,181.7 L 263.3,190.4 L 262.0,191.3 L 253.2,198.3 L 251.1,200.9 L 250.3,210.4 L 252.5,220.0" fill="none" stroke="#c9a876" stroke-width="1.1" stroke-linejoin="round" stroke-linecap="round"/>
  <path d="M 303.8,94.0 L 313.9,91.8 L 324.1,91.2 L 334.2,91.5 L 344.3,93.3 L 352.9,95.7 L 354.4,96.4 L 364.6,98.5 L 374.7,97.4 L 384.8,96.0 L 394.9,96.1 L 405.1,98.2 L 415.2,100.2 L 425.3,102.1 L 435.4,104.1 L 439.5,105.2 L 435.4,107.6 L 425.4,114.8 L 425.3,114.8 L 415.2,118.2 L 405.1,122.5 L 401.7,124.3 L 394.9,132.3 L 393.9,133.9 L 394.9,134.8 L 405.1,143.0 L 405.6,143.5 L 415.2,151.1 L 416.8,153.0 L 420.7,162.6 L 420.7,172.2 L 423.8,181.7 L 425.3,183.2 L 435.4,187.0 L 442.6,191.3 L 445.6,194.4 L 448.6,200.9 L 447.9,210.4 L 445.6,217.8 L 442.3,220.0" fill="none" stroke="#c9a876" stroke-width="1.1" stroke-linejoin="round" stroke-linecap="round"/>
  <path d="M 536.7,161.5 L 535.5,162.6 L 528.0,172.2 L 530.5,181.7 L 536.7,187.9 L 541.8,191.3 L 546.8,195.7 L 557.0,194.9 L 560.3,191.3 L 563.0,181.7 L 561.0,172.2 L 557.2,162.6 L 557.0,161.2 L 546.8,155.2 L 536.7,161.5" fill="none" stroke="#c9a876" stroke-width="1.1" stroke-linejoin="round" stroke-linecap="round"/>
  <path d="M 141.8,219.9 L 151.9,217.2 L 162.0,219.9 L 162.1,220.0" fill="none" stroke="#c9a876" stroke-width="1.1" stroke-linejoin="round" stroke-linecap="round"/>
  <path d="M 108.1,0.0 L 108.7,9.6 L 110.4,19.1 L 111.4,22.6 L 115.3,28.7 L 121.5,34.4 L 131.6,36.0 L 141.8,37.4 L 146.0,38.3 L 151.9,41.4 L 162.0,39.7 L 172.2,41.1 L 177.0,47.8 L 175.2,57.4 L 174.5,67.0 L 177.0,76.5 L 178.2,86.1 L 175.7,95.7 L 172.2,99.0 L 164.2,105.2 L 162.0,106.3 L 151.9,107.9 L 141.8,107.1 L 137.6,105.2 L 131.6,100.7 L 125.9,95.7 L 121.5,90.7 L 111.4,86.3 L 109.0,86.1 L 101.3,85.2 L 96.2,86.1 L 91.1,86.7 L 81.0,88.4 L 70.9,89.2 L 60.8,90.0 L 50.6,93.6 L 48.2,95.7 L 40.5,99.2 L 30.4,101.5 L 20.3,96.0 L 19.8,95.7 L 10.1,90.6 L 0.0,89.4" fill="none" stroke="#c9a876" stroke-width="1.1" stroke-linejoin="round" stroke-linecap="round"/>
  <path d="M 772.8,0.0 L 777.5,9.6 L 779.7,11.4 L 789.9,14.3 L 800.0,11.6" fill="none" stroke="#c9a876" stroke-width="1.1" stroke-linejoin="round" stroke-linecap="round"/>
  <path d="M 658.2,57.4 L 655.8,57.4 L 648.1,57.5 L 638.0,59.7 L 627.8,62.5 L 617.7,65.3 L 615.2,67.0 L 607.6,74.8 L 606.9,76.5 L 603.2,86.1 L 597.8,95.7 L 597.5,96.2 L 591.1,105.2 L 587.3,108.6 L 577.2,114.3 L 575.2,114.8 L 567.1,116.8 L 557.0,118.2 L 546.8,120.3 L 536.7,123.5 L 526.6,123.1 L 516.5,121.2 L 506.3,119.3 L 496.2,116.9 L 492.1,114.8 L 486.1,106.4 L 485.6,105.2 L 479.4,95.7 L 475.9,93.0 L 465.8,90.0 L 455.7,89.9 L 445.6,90.4 L 435.4,90.5 L 425.3,89.7 L 415.2,88.0 L 406.2,86.1 L 405.1,85.8 L 394.9,84.4 L 384.8,84.2 L 374.7,84.4 L 364.6,84.0 L 354.4,82.6 L 344.3,82.0 L 334.2,82.0 L 324.1,81.9 L 313.9,81.1 L 303.8,80.4 L 293.7,81.8 L 285.5,86.1 L 283.5,87.5 L 275.7,95.7 L 273.4,100.9 L 271.5,105.2 L 269.8,114.8 L 273.4,124.3 L 283.5,122.5 L 288.8,124.3 L 293.7,126.4 L 300.0,133.9 L 296.2,143.5 L 293.7,144.8 L 283.5,146.4 L 275.5,143.5 L 273.4,138.7 L 272.2,133.9 L 273.3,124.3 L 263.3,120.6 L 253.2,123.7 L 251.2,124.3 L 243.0,128.6 L 234.1,133.9 L 233.4,143.5 L 243.0,146.6 L 253.2,149.0 L 263.3,152.9 L 263.6,153.0 L 267.4,162.6 L 266.2,172.2 L 263.3,177.5 L 259.7,181.7 L 253.2,186.5 L 246.2,191.3 L 243.0,195.9 L 241.1,200.9 L 240.6,210.4 L 240.2,220.0" fill="none" stroke="#c9a876" stroke-width="1.1" stroke-linejoin="round" stroke-linecap="round"/>
  <path d="M 658.2,57.4 L 658.3,57.4 L 668.4,62.2 L 674.8,67.0 L 678.5,69.4 L 688.6,71.4 L 698.7,71.7 L 708.9,73.7 L 716.2,76.5 L 719.0,77.4 L 729.1,81.3 L 738.1,86.1 L 739.2,87.3 L 744.1,95.7 L 747.1,105.2 L 748.3,114.8 L 748.0,124.3 L 748.4,133.9 L 749.4,135.4 L 755.1,143.5 L 759.5,147.3 L 768.2,153.0 L 769.6,154.2 L 777.4,162.6 L 779.7,170.7 L 780.0,172.2 L 779.7,173.2 L 776.6,181.7 L 772.9,191.3 L 772.4,200.9 L 776.1,210.4 L 779.7,220.0" fill="none" stroke="#c9a876" stroke-width="1.1" stroke-linejoin="round" stroke-linecap="round"/>
  <path d="M 465.8,152.2 L 462.9,153.0 L 455.7,156.8 L 451.4,162.6 L 452.0,172.2 L 455.7,176.7 L 459.0,181.7 L 463.7,191.3 L 465.0,200.9 L 465.7,210.4 L 465.8,210.7 L 475.9,216.8 L 486.1,218.6 L 496.2,218.0 L 506.3,216.1 L 516.5,212.4 L 518.7,210.4 L 519.5,200.9 L 516.5,197.6 L 506.3,191.9 L 504.5,191.3 L 496.2,188.1 L 490.5,181.7 L 489.7,172.2 L 489.7,162.6 L 486.1,157.0 L 481.6,153.0 L 475.9,149.0 L 465.8,152.2" fill="none" stroke="#c9a876" stroke-width="1.1" stroke-linejoin="round" stroke-linecap="round"/>
  <path d="M 162.0,200.6 L 160.1,200.9 L 151.9,201.7 L 141.8,205.1 L 131.6,204.4 L 121.5,200.9 L 111.4,202.9 L 107.8,210.4 L 111.4,215.3 L 116.3,220.0" fill="none" stroke="#c9a876" stroke-width="1.1" stroke-linejoin="round" stroke-linecap="round"/>
  <path d="M 162.0,200.6 L 162.6,200.9 L 172.2,205.1 L 177.6,210.4 L 181.7,220.0" fill="none" stroke="#c9a876" stroke-width="1.1" stroke-linejoin="round" stroke-linecap="round"/>
  <path d="M 119.6,0.0 L 121.4,9.6 L 121.5,9.8 L 130.0,19.1 L 131.6,20.1 L 141.8,24.0 L 151.9,26.6 L 162.0,26.0 L 172.2,25.4 L 182.3,26.7 L 186.4,28.7 L 192.4,33.4 L 196.4,38.3 L 199.0,47.8 L 199.6,57.4 L 200.6,67.0 L 202.5,71.8 L 204.6,76.5 L 212.7,85.6 L 213.1,86.1 L 222.8,94.5 L 224.3,95.7 L 232.9,103.0 L 241.5,105.2 L 243.0,105.5 L 243.9,105.2 L 253.2,101.3 L 257.3,95.7 L 263.3,90.2 L 266.9,86.1 L 273.4,79.9 L 277.5,76.5 L 283.5,71.1 L 292.1,67.0 L 293.7,66.0 L 303.8,66.9 L 303.9,67.0 L 313.9,70.1 L 324.1,72.3 L 334.2,72.1 L 344.3,70.5 L 354.4,69.0 L 364.6,70.0 L 374.7,71.0 L 384.8,71.4 L 394.9,71.6 L 405.1,73.6 L 410.7,76.5 L 415.2,78.0 L 425.3,80.7 L 435.4,81.5 L 445.6,80.2 L 455.7,76.9 L 457.1,76.5 L 465.8,71.7 L 475.9,73.4 L 482.7,76.5 L 486.1,77.8 L 496.2,85.8 L 496.5,86.1 L 504.5,95.7 L 506.3,97.8 L 516.5,102.5 L 526.6,102.9 L 536.7,101.7 L 546.8,100.1 L 557.0,101.0 L 567.1,102.1 L 577.2,99.5 L 581.4,95.7 L 587.3,90.6 L 590.5,86.1 L 595.7,76.5 L 597.5,72.3 L 599.8,67.0 L 604.2,57.4 L 607.6,52.3 L 617.7,48.0 L 621.9,47.8 L 627.8,47.5 L 638.0,47.5 L 648.1,47.2 L 658.2,47.3 L 661.9,47.8 L 668.4,48.9 L 678.5,52.4 L 688.6,54.3 L 698.7,55.0 L 708.9,57.3 L 709.3,57.4 L 719.0,60.5 L 729.1,63.7 L 739.2,61.1 L 749.1,57.4 L 749.4,57.3 L 759.5,57.4 L 759.6,57.4 L 769.6,60.7 L 779.7,59.7 L 784.4,57.4 L 789.9,56.3 L 798.9,57.4 L 800.0,58.4" fill="none" stroke="#c9a876" stroke-width="1.1" stroke-linejoin="round" stroke-linecap="round"/>
  <path d="M 554.2,0.0 L 557.0,0.4 L 567.1,1.6 L 577.2,0.8 L 577.9,0.0" fill="none" stroke="#c9a876" stroke-width="1.1" stroke-linejoin="round" stroke-linecap="round"/>
  <path d="M 756.1,0.0 L 759.3,9.6 L 759.5,9.9 L 767.7,19.1 L 769.6,20.9 L 779.7,26.7 L 789.9,28.3 L 800.0,26.6" fill="none" stroke="#c9a876" stroke-width="1.1" stroke-linejoin="round" stroke-linecap="round"/>
  <path d="M 465.8,28.6 L 465.8,28.7 L 463.6,38.3 L 465.8,47.0 L 475.9,47.8 L 486.1,41.4 L 489.6,38.3 L 487.2,28.7 L 486.1,28.4 L 475.9,27.3 L 465.8,28.6" fill="none" stroke="#c9a876" stroke-width="1.1" stroke-linejoin="round" stroke-linecap="round"/>
  <path d="M 779.7,72.2 L 770.8,76.5 L 769.6,77.1 L 764.2,86.1 L 763.0,95.7 L 769.6,100.6 L 779.7,97.6 L 789.9,95.9 L 793.7,105.2 L 791.3,114.8 L 789.9,118.3 L 786.0,124.3 L 784.3,133.9 L 787.5,143.5 L 789.9,147.8 L 791.6,153.0 L 794.6,162.6 L 795.7,172.2 L 794.0,181.7 L 791.5,191.3 L 790.7,200.9 L 793.6,210.4 L 795.6,220.0" fill="none" stroke="#c9a876" stroke-width="1.1" stroke-linejoin="round" stroke-linecap="round"/>
  <path d="M 779.7,72.2 L 789.9,72.1 L 800.0,68.2" fill="none" stroke="#c9a876" stroke-width="1.1" stroke-linejoin="round" stroke-linecap="round"/>
  <path d="M 0.0,101.3 L 10.1,104.9 L 10.5,105.2 L 20.3,111.0 L 30.4,112.8 L 40.5,110.8 L 50.6,107.4 L 56.9,105.2 L 60.8,103.5 L 70.9,101.3 L 81.0,101.0 L 91.1,100.1 L 101.3,99.6 L 111.4,101.3 L 117.6,105.2 L 121.5,107.3 L 131.6,113.6 L 134.3,114.8 L 141.8,117.7 L 151.9,119.2 L 162.0,120.8 L 172.2,122.2 L 182.3,121.8 L 188.4,124.3 L 192.4,127.6 L 194.9,133.9 L 197.2,143.5 L 194.7,153.0 L 192.4,155.0 L 182.3,158.6 L 176.8,162.6 L 172.2,165.1 L 166.8,172.2 L 162.0,178.3 L 159.0,181.7 L 151.9,187.1 L 141.8,190.7 L 131.6,190.9 L 121.5,190.4 L 113.5,191.3 L 111.4,191.6 L 101.3,197.9 L 98.9,200.9 L 96.3,210.4 L 98.8,220.0" fill="none" stroke="#c9a876" stroke-width="1.1" stroke-linejoin="round" stroke-linecap="round"/>
  <path d="M 243.0,167.5 L 239.9,172.2 L 243.0,175.1 L 253.2,173.0 L 253.9,172.2 L 253.2,169.4 L 243.0,167.5" fill="none" stroke="#c9a876" stroke-width="1.1" stroke-linejoin="round" stroke-linecap="round"/>
  <path d="M 202.5,187.0 L 197.0,191.3 L 193.0,200.9 L 197.9,210.4 L 202.5,214.7 L 212.7,218.9 L 221.7,220.0" fill="none" stroke="#c9a876" stroke-width="1.1" stroke-linejoin="round" stroke-linecap="round"/>
  <path d="M 202.5,187.0 L 212.7,184.2 L 222.8,185.1 L 230.9,191.3 L 232.4,200.9 L 231.5,210.4 L 223.0,220.0" fill="none" stroke="#c9a876" stroke-width="1.1" stroke-linejoin="round" stroke-linecap="round"/>
  <path d="M 133.4,0.0 L 138.4,9.6 L 141.8,11.8 L 151.9,15.6 L 162.0,14.7 L 172.2,12.8 L 182.3,12.7 L 192.4,16.9 L 195.5,19.1 L 202.5,24.3 L 207.8,28.7 L 212.7,35.6 L 214.8,38.3 L 219.8,47.8 L 222.8,55.3 L 223.5,57.4 L 226.8,67.0 L 232.0,76.5 L 232.9,77.4 L 243.0,81.7 L 253.2,79.4 L 256.8,76.5 L 263.3,70.4 L 266.5,67.0 L 273.4,58.5 L 274.5,57.4 L 283.5,48.0 L 283.8,47.8 L 293.7,42.9 L 303.8,44.7 L 308.8,47.8 L 313.9,51.0 L 324.1,56.2 L 334.2,56.1 L 344.3,52.4 L 354.4,49.4 L 364.6,50.5 L 374.7,52.0 L 384.8,52.4 L 394.9,52.0 L 405.1,53.5 L 410.3,57.4 L 415.2,61.1 L 422.2,67.0 L 425.3,68.6 L 435.4,70.0 L 442.5,67.0 L 445.6,62.7 L 447.6,57.4 L 448.7,47.8 L 449.4,38.3 L 451.2,28.7 L 455.2,19.1 L 455.7,18.2 L 465.5,9.6 L 465.8,9.1 L 475.9,5.1 L 480.2,0.0" fill="none" stroke="#c9a876" stroke-width="1.1" stroke-linejoin="round" stroke-linecap="round"/>
  <path d="M 598.0,0.0 L 598.0,9.6 L 598.6,19.1 L 607.6,23.1 L 617.7,23.3 L 627.8,24.5 L 638.0,28.6 L 638.2,28.7 L 648.1,32.8 L 658.2,34.6 L 668.4,35.1 L 678.5,35.3 L 688.6,35.6 L 698.7,37.0 L 706.4,38.3 L 708.9,38.8 L 719.0,39.5 L 724.5,38.3 L 729.1,37.0 L 739.2,34.8 L 748.4,28.7 L 743.8,19.1 L 740.4,9.6 L 739.2,0.7 L 739.2,0.0" fill="none" stroke="#c9a876" stroke-width="1.1" stroke-linejoin="round" stroke-linecap="round"/>
  <path d="M 536.7,25.7 L 532.3,28.7 L 526.6,36.3 L 525.6,38.3 L 519.3,47.8 L 516.5,53.6 L 514.2,57.4 L 512.9,67.0 L 516.5,74.8 L 517.1,76.5 L 526.6,85.5 L 528.3,86.1 L 536.7,88.1 L 546.8,87.7 L 557.0,87.4 L 567.1,86.5 L 568.4,86.1 L 577.2,82.9 L 583.9,76.5 L 587.3,71.6 L 589.3,67.0 L 591.2,57.4 L 592.0,47.8 L 592.8,38.3 L 594.5,28.7 L 587.3,25.0 L 577.2,24.5 L 567.1,24.4 L 557.0,24.5 L 546.8,24.6 L 536.7,25.7" fill="none" stroke="#c9a876" stroke-width="1.1" stroke-linejoin="round" stroke-linecap="round"/>
  <path d="M 60.8,113.9 L 57.8,114.8 L 50.6,116.5 L 40.5,119.1 L 30.4,121.7 L 20.3,123.2 L 10.1,124.2 L 5.7,124.3 L 0.0,124.7" fill="none" stroke="#c9a876" stroke-width="1.1" stroke-linejoin="round" stroke-linecap="round"/>
  <path d="M 60.8,113.9 L 70.9,112.5 L 81.0,112.4 L 91.1,111.7 L 101.3,111.5 L 111.4,113.5 L 113.9,114.8 L 121.5,118.7 L 131.6,124.1 L 132.3,124.3 L 141.8,128.9 L 151.9,131.9 L 155.5,133.9 L 162.0,143.4 L 162.1,143.5 L 162.4,153.0 L 162.0,153.8 L 158.7,162.6 L 152.3,172.2 L 151.9,172.6 L 141.8,177.6 L 131.6,179.5 L 121.5,181.0 L 118.8,181.7 L 111.4,183.1 L 101.3,187.5 L 96.7,191.3 L 91.1,199.2 L 90.2,200.9 L 87.1,210.4 L 82.8,220.0" fill="none" stroke="#c9a876" stroke-width="1.1" stroke-linejoin="round" stroke-linecap="round"/>
  <path d="M 202.7,0.0 L 209.0,9.6 L 212.7,12.3 L 222.8,18.7 L 223.2,19.1 L 231.3,28.7 L 232.9,31.8 L 236.9,38.3 L 243.0,47.8 L 243.0,47.9 L 253.2,49.7 L 255.2,47.8 L 263.3,41.3 L 266.1,38.3 L 273.4,29.4 L 274.1,28.7 L 274.7,19.1 L 273.4,14.4 L 272.5,9.6 L 271.3,0.0" fill="none" stroke="#c9a876" stroke-width="1.1" stroke-linejoin="round" stroke-linecap="round"/>
  <path d="M 313.9,1.2 L 313.2,9.6 L 312.5,19.1 L 313.9,23.2 L 316.8,28.7 L 324.1,33.1 L 334.2,33.9 L 344.3,31.1 L 354.4,29.1 L 364.6,30.1 L 374.7,31.5 L 384.8,31.8 L 394.9,30.8 L 405.1,30.0 L 415.2,34.3 L 422.9,38.3 L 425.3,39.8 L 430.3,38.3 L 435.4,36.1 L 438.0,28.7 L 440.7,19.1 L 443.2,9.6 L 444.6,0.0" fill="none" stroke="#c9a876" stroke-width="1.1" stroke-linejoin="round" stroke-linecap="round"/>
  <path d="M 646.0,0.0 L 648.1,3.3 L 650.9,9.6 L 658.2,15.0 L 667.3,19.1 L 668.4,19.4 L 678.5,21.5 L 688.6,22.8 L 698.7,23.8 L 708.9,23.4 L 717.6,19.1 L 719.0,16.7 L 721.2,9.6 L 721.7,0.0" fill="none" stroke="#c9a876" stroke-width="1.1" stroke-linejoin="round" stroke-linecap="round"/>
  <path d="M 536.7,52.0 L 532.0,57.4 L 529.4,67.0 L 536.7,76.3 L 540.8,76.5 L 546.8,76.7 L 548.0,76.5 L 557.0,73.7 L 567.1,68.2 L 568.9,67.0 L 567.3,57.4 L 567.1,57.2 L 557.0,52.4 L 546.8,50.3 L 536.7,52.0" fill="none" stroke="#c9a876" stroke-width="1.1" stroke-linejoin="round" stroke-linecap="round"/>
  <path d="M 70.9,124.3 L 64.7,124.3 L 60.8,124.4 L 50.6,125.5 L 40.5,128.0 L 30.4,132.4 L 27.3,133.9 L 22.1,143.5 L 27.9,153.0 L 30.4,154.5 L 39.6,162.6 L 40.5,164.2 L 43.3,172.2 L 42.0,181.7 L 40.5,184.9 L 30.4,185.4 L 25.9,181.7 L 20.3,177.3 L 14.1,172.2 L 10.1,167.6 L 0.0,163.5" fill="none" stroke="#c9a876" stroke-width="1.1" stroke-linejoin="round" stroke-linecap="round"/>
  <path d="M 70.9,124.3 L 81.0,124.2 L 91.1,123.2 L 101.3,122.8 L 108.3,124.3 L 111.4,125.2 L 121.5,131.5 L 125.2,133.9 L 131.6,142.6 L 132.6,143.5 L 137.0,153.0 L 131.6,161.3 L 130.7,162.6 L 121.5,166.8 L 112.3,172.2 L 111.4,172.4 L 101.3,177.1 L 94.7,181.7 L 91.1,184.5 L 85.3,191.3 L 81.1,200.9 L 81.0,201.1 L 74.6,210.4 L 70.9,213.2 L 60.8,215.3 L 50.6,216.0 L 40.5,220.0" fill="none" stroke="#c9a876" stroke-width="1.1" stroke-linejoin="round" stroke-linecap="round"/>
</svg>
