<svg xmlns="http://www.w3.org/2000/svg" viewBox="0 0 1200 100" preserveAspectRatio="none">
  <polyline points="0.0,55.5 7.5,53.2 15.1,51.7 22.6,47.8 30.2,47.1 37.7,48.6 45.3,51.7 52.8,53.2 60.4,53.2 67.9,50.9 75.5,48.6 83.0,47.1 90.6,46.3 98.1,44.8 105.7,46.3 113.2,44.8 120.8,43.2 128.3,41.7 135.8,37.8 143.4,36.3 150.9,38.6 158.5,40.9 166.0,41.7 173.6,42.5 181.1,44.8 188.7,35.5 196.2,31.7 203.8,40.2 211.3,32.5 218.9,34.8 226.4,41.7 234.0,53.2 241.5,50.9 249.1,47.8 256.6,50.2 264.2,55.5 271.7,50.9 279.2,47.1 286.8,42.5 294.3,45.5 301.9,41.7 309.4,44.8 317.0,39.4 324.5,45.5 332.1,47.1 339.6,47.1 347.2,49.4 354.7,52.5 362.3,51.7 369.8,54.8 377.4,61.7 384.9,56.3 392.5,51.7 400.0,48.6 407.5,41.7 415.1,40.2 422.6,42.5 430.2,36.3 437.7,35.5 445.3,37.8 452.8,39.4 460.4,25.5 467.9,25.5 475.5,31.7 483.0,34.8 490.6,37.1 498.1,50.9 505.7,60.2 513.2,64.0 520.8,58.6 528.3,44.0 535.8,47.8 543.4,48.6 550.9,36.3 558.5,40.2 566.0,23.2 573.6,36.3 581.1,34.8 588.7,45.5 596.2,37.1 603.8,32.5 611.3,62.5 618.9,60.9 626.4,59.4 634.0,41.7 641.5,14.0 649.1,44.8 656.6,36.3 664.2,40.2 671.7,64.0 679.2,49.4 686.8,22.5 694.3,31.7 701.9,20.2 709.4,30.9 717.0,30.9 724.5,48.6 732.1,20.9 739.6,22.5 747.2,31.7 754.7,25.5 762.3,29.4 769.8,27.8 777.4,30.2 784.9,39.4 792.5,31.7 800.0,37.1 807.5,35.5 815.1,40.9 822.6,42.5 830.2,47.1 837.7,50.9 845.3,53.2 852.8,54.0 860.4,54.8 867.9,57.1 875.5,58.6 883.0,60.2 890.6,60.9 898.1,63.2 905.7,63.2 913.2,63.2 920.8,64.0 928.3,55.5 935.8,51.7 943.4,50.9 950.9,50.9 958.5,49.4 966.0,47.8 973.6,47.8 981.1,42.5 988.7,39.4 996.2,37.1 1003.8,37.8 1011.3,35.5 1018.9,36.3 1026.4,37.8 1034.0,32.5 1041.5,32.5 1049.1,29.4 1056.6,40.2 1064.2,33.2 1071.7,34.0 1079.2,30.2 1086.8,27.1 1094.3,26.3 1101.9,24.8 1109.4,25.5 1117.0,27.1 1124.5,24.8 1132.1,27.8 1139.6,28.6 1147.2,31.7 1154.7,34.8 1162.3,31.7 1169.8,28.6 1177.4,28.6 1184.9,29.4 1192.5,30.2 1200.0,31.7" fill="none" stroke="#c9a876" stroke-width="2.4" stroke-linejoin="round" stroke-linecap="round" />
</svg>